<svg xmlns="http://www.w3.org/2000/svg" xmlns:xlink="http://www.w3.org/1999/xlink" width="2000" zoomAndPan="magnify" viewBox="0 0 1500 1499.999933" height="2000" preserveAspectRatio="xMidYMid meet" version="1.0"><defs><filter x="0%" y="0%" width="100%" height="100%" id="ebcdaaf971"><feColorMatrix values="0 0 0 0 1 0 0 0 0 1 0 0 0 0 1 0 0 0 1 0" color-interpolation-filters="sRGB"/></filter><g/><clipPath id="1418525e61"><path d="M 288 392 L 1211.46875 392 L 1211.46875 1107.933594 L 288 1107.933594 Z M 288 392 " clip-rule="nonzero"/></clipPath><clipPath id="f2a3195412"><path d="M 359.175781 392.066406 L 1140.824219 392.066406 C 1179.761719 392.066406 1211.324219 423.632812 1211.324219 462.566406 L 1211.324219 1037.433594 C 1211.324219 1076.367188 1179.761719 1107.933594 1140.824219 1107.933594 L 359.175781 1107.933594 C 320.238281 1107.933594 288.675781 1076.367188 288.675781 1037.433594 L 288.675781 462.566406 C 288.675781 423.632812 320.238281 392.066406 359.175781 392.066406 Z M 359.175781 392.066406 " clip-rule="nonzero"/></clipPath><clipPath id="d6546fdf62"><path d="M 364.804688 547.976562 L 1135 547.976562 L 1135 1050.648438 L 364.804688 1050.648438 Z M 364.804688 547.976562 " clip-rule="nonzero"/></clipPath><clipPath id="8e1202d409"><path d="M 435.304688 547.976562 L 1064.695312 547.976562 C 1103.632812 547.976562 1135.195312 579.539062 1135.195312 618.476562 L 1135.195312 980.148438 C 1135.195312 1019.082031 1103.632812 1050.648438 1064.695312 1050.648438 L 435.304688 1050.648438 C 396.367188 1050.648438 364.804688 1019.082031 364.804688 980.148438 L 364.804688 618.476562 C 364.804688 579.539062 396.367188 547.976562 435.304688 547.976562 Z M 435.304688 547.976562 " clip-rule="nonzero"/></clipPath><clipPath id="8f618a23c4"><path d="M 429.609375 1039 L 1070.390625 1039 L 1070.390625 1039.238281 L 429.609375 1039.238281 Z M 429.609375 1039 " clip-rule="nonzero"/></clipPath><clipPath id="93b1346433"><path d="M 429.609375 919 L 1070.390625 919 L 1070.390625 920 L 429.609375 920 Z M 429.609375 919 " clip-rule="nonzero"/></clipPath><clipPath id="39c00b163e"><path d="M 429.609375 799 L 1070.390625 799 L 1070.390625 800 L 429.609375 800 Z M 429.609375 799 " clip-rule="nonzero"/></clipPath><clipPath id="3dd65275c9"><path d="M 429.609375 679 L 1070.390625 679 L 1070.390625 680 L 429.609375 680 Z M 429.609375 679 " clip-rule="nonzero"/></clipPath><clipPath id="e5fa9adf0b"><path d="M 429.609375 559.386719 L 1070.390625 559.386719 L 1070.390625 560 L 429.609375 560 Z M 429.609375 559.386719 " clip-rule="nonzero"/></clipPath><mask id="a2f8254f0b"><g filter="url(#ebcdaaf971)"><rect x="-150" width="1800" fill="#000000" y="-149.999993" height="1799.99992" fill-opacity="0.74"/></g></mask><clipPath id="c7e62e1f99"><path d="M 0.523438 1.070312 L 205.3125 1.070312 L 205.3125 77.160156 L 0.523438 77.160156 Z M 0.523438 1.070312 " clip-rule="nonzero"/></clipPath><clipPath id="a326c2256b"><path d="M 38.570312 1.070312 L 167.152344 1.070312 C 188.160156 1.070312 205.195312 18.105469 205.195312 39.117188 C 205.195312 60.128906 188.160156 77.160156 167.152344 77.160156 L 38.570312 77.160156 C 17.558594 77.160156 0.523438 60.128906 0.523438 39.117188 C 0.523438 18.105469 17.558594 1.070312 38.570312 1.070312 Z M 38.570312 1.070312 " clip-rule="nonzero"/></clipPath><clipPath id="38079d0dde"><rect x="0" width="206" y="0" height="78"/></clipPath></defs><g clip-path="url(#1418525e61)"><g clip-path="url(#f2a3195412)"><path fill="#ede8f5" d="M 288.675781 392.066406 L 1211.46875 392.066406 L 1211.46875 1107.933594 L 288.675781 1107.933594 Z M 288.675781 392.066406 " fill-opacity="1" fill-rule="nonzero"/></g></g><g clip-path="url(#d6546fdf62)"><g clip-path="url(#8e1202d409)"><path fill="#ffffff" d="M 364.804688 547.976562 L 1134.519531 547.976562 L 1134.519531 1050.648438 L 364.804688 1050.648438 Z M 364.804688 547.976562 " fill-opacity="1" fill-rule="nonzero"/></g></g><g clip-path="url(#8f618a23c4)"><path stroke-linecap="butt" transform="matrix(0.427187, 0, 0, 0.427187, 429.609452, 559.386148)" fill="none" stroke-linejoin="miter" d="M -0.000181059 1123.28273 L 1500.000468 1123.28273 " stroke="#000000" stroke-width="1" stroke-opacity="0.6" stroke-miterlimit="4"/></g><g clip-path="url(#93b1346433)"><path stroke-linecap="butt" transform="matrix(0.427187, 0, 0, 0.427187, 429.609452, 559.386148)" fill="none" stroke-linejoin="miter" d="M -0.000181059 842.457809 L 1500.000468 842.457809 " stroke="#000000" stroke-width="1" stroke-opacity="0.251" stroke-miterlimit="4"/></g><g clip-path="url(#39c00b163e)"><path stroke-linecap="butt" transform="matrix(0.427187, 0, 0, 0.427187, 429.609452, 559.386148)" fill="none" stroke-linejoin="miter" d="M -0.000181059 561.642033 L 1500.000468 561.642033 " stroke="#000000" stroke-width="1" stroke-opacity="0.251" stroke-miterlimit="4"/></g><g clip-path="url(#3dd65275c9)"><path stroke-linecap="butt" transform="matrix(0.427187, 0, 0, 0.427187, 429.609452, 559.386148)" fill="none" stroke-linejoin="miter" d="M -0.000181059 280.817113 L 1500.000468 280.817113 " stroke="#000000" stroke-width="1" stroke-opacity="0.251" stroke-miterlimit="4"/></g><g clip-path="url(#e5fa9adf0b)"><path stroke-linecap="butt" transform="matrix(0.427187, 0, 0, 0.427187, 429.609452, 559.386148)" fill="none" stroke-linejoin="miter" d="M -0.000181059 0.00133649 L 1500.000468 0.00133649 " stroke="#000000" stroke-width="1" stroke-opacity="0.251" stroke-miterlimit="4"/></g><path stroke-linecap="round" transform="matrix(0.427187, 0, 0, 0.427187, 429.609452, 559.386148)" fill-opacity="1" fill="#000000" fill-rule="nonzero" stroke-linejoin="miter" d="M 149.999884 842.457809 L 450.000014 561.642033 " stroke="#3d52a0" stroke-width="12" stroke-opacity="1" stroke-miterlimit="4"/><path stroke-linecap="round" transform="matrix(0.427187, 0, 0, 0.427187, 429.609452, 559.386148)" fill-opacity="1" fill="#000000" fill-rule="nonzero" stroke-linejoin="miter" d="M 450.000014 561.642033 L 750.000143 505.478878 " stroke="#3d52a0" stroke-width="12" stroke-opacity="1" stroke-miterlimit="4"/><path stroke-linecap="round" transform="matrix(0.427187, 0, 0, 0.427187, 429.609452, 559.386148)" fill-opacity="1" fill="#000000" fill-rule="nonzero" stroke-linejoin="miter" d="M 750.000143 505.478878 L 1050.000273 196.57238 " stroke="#3d52a0" stroke-width="12" stroke-opacity="1" stroke-miterlimit="4"/><path stroke-linecap="round" transform="matrix(0.427187, 0, 0, 0.427187, 429.609452, 559.386148)" fill-opacity="1" fill="#000000" fill-rule="nonzero" stroke-linejoin="miter" d="M 1050.000273 196.57238 L 1350.000403 112.327647 " stroke="#3d52a0" stroke-width="12" stroke-opacity="1" stroke-miterlimit="4"/><path fill="#3d52a0" d="M 508.851562 919.273438 C 508.851562 918.277344 508.753906 917.292969 508.558594 916.316406 C 508.367188 915.339844 508.078125 914.394531 507.695312 913.472656 C 507.316406 912.554688 506.847656 911.679688 506.292969 910.851562 C 505.742188 910.023438 505.113281 909.257812 504.410156 908.554688 C 503.703125 907.851562 502.9375 907.222656 502.109375 906.671875 C 501.28125 906.117188 500.410156 905.652344 499.488281 905.269531 C 498.570312 904.890625 497.621094 904.601562 496.644531 904.40625 C 495.667969 904.214844 494.683594 904.117188 493.6875 904.117188 C 492.691406 904.117188 491.707031 904.214844 490.730469 904.40625 C 489.753906 904.601562 488.804688 904.890625 487.886719 905.269531 C 486.964844 905.652344 486.09375 906.117188 485.265625 906.671875 C 484.4375 907.222656 483.671875 907.851562 482.964844 908.554688 C 482.261719 909.257812 481.632812 910.023438 481.082031 910.851562 C 480.527344 911.679688 480.058594 912.554688 479.679688 913.472656 C 479.296875 914.394531 479.007812 915.339844 478.816406 916.316406 C 478.621094 917.292969 478.523438 918.277344 478.523438 919.273438 C 478.523438 920.269531 478.621094 921.253906 478.816406 922.230469 C 479.007812 923.207031 479.296875 924.15625 479.679688 925.074219 C 480.058594 925.996094 480.527344 926.867188 481.082031 927.695312 C 481.632812 928.523438 482.261719 929.289062 482.964844 929.992188 C 483.671875 930.695312 484.4375 931.324219 485.265625 931.878906 C 486.09375 932.429688 486.964844 932.898438 487.886719 933.277344 C 488.804688 933.660156 489.753906 933.945312 490.730469 934.140625 C 491.707031 934.335938 492.691406 934.433594 493.6875 934.433594 C 494.683594 934.433594 495.667969 934.335938 496.644531 934.140625 C 497.621094 933.945312 498.570312 933.660156 499.488281 933.277344 C 500.410156 932.898438 501.28125 932.429688 502.109375 931.878906 C 502.9375 931.324219 503.703125 930.695312 504.410156 929.992188 C 505.113281 929.289062 505.742188 928.523438 506.292969 927.695312 C 506.847656 926.867188 507.316406 925.996094 507.695312 925.074219 C 508.078125 924.15625 508.367188 923.207031 508.558594 922.230469 C 508.753906 921.253906 508.851562 920.269531 508.851562 919.273438 Z M 508.851562 919.273438 " fill-opacity="1" fill-rule="nonzero"/><path fill="#3d52a0" d="M 637.007812 799.3125 C 637.007812 798.316406 636.910156 797.328125 636.71875 796.351562 C 636.523438 795.375 636.234375 794.429688 635.855469 793.507812 C 635.472656 792.589844 635.007812 791.714844 634.453125 790.886719 C 633.898438 790.058594 633.269531 789.292969 632.566406 788.589844 C 631.863281 787.882812 631.097656 787.253906 630.269531 786.703125 C 629.441406 786.148438 628.566406 785.683594 627.648438 785.300781 C 626.726562 784.917969 625.777344 784.632812 624.800781 784.4375 C 623.824219 784.242188 622.839844 784.148438 621.84375 784.148438 C 620.847656 784.148438 619.863281 784.242188 618.886719 784.4375 C 617.910156 784.632812 616.960938 784.917969 616.039062 785.300781 C 615.121094 785.683594 614.246094 786.148438 613.417969 786.703125 C 612.589844 787.253906 611.824219 787.882812 611.121094 788.589844 C 610.417969 789.292969 609.789062 790.058594 609.234375 790.886719 C 608.679688 791.714844 608.214844 792.589844 607.832031 793.507812 C 607.453125 794.429688 607.164062 795.375 606.96875 796.351562 C 606.777344 797.328125 606.679688 798.316406 606.679688 799.3125 C 606.679688 800.308594 606.777344 801.292969 606.96875 802.269531 C 607.164062 803.246094 607.453125 804.195312 607.832031 805.113281 C 608.214844 806.035156 608.679688 806.910156 609.234375 807.738281 C 609.789062 808.566406 610.417969 809.332031 611.121094 810.035156 C 611.824219 810.738281 612.589844 811.367188 613.417969 811.921875 C 614.246094 812.472656 615.121094 812.941406 616.039062 813.324219 C 616.960938 813.703125 617.910156 813.992188 618.886719 814.183594 C 619.863281 814.378906 620.847656 814.476562 621.84375 814.476562 C 622.839844 814.476562 623.824219 814.378906 624.800781 814.183594 C 625.777344 813.992188 626.726562 813.703125 627.648438 813.324219 C 628.566406 812.941406 629.441406 812.472656 630.269531 811.921875 C 631.097656 811.367188 631.863281 810.738281 632.566406 810.035156 C 633.269531 809.332031 633.898438 808.566406 634.453125 807.738281 C 635.007812 806.910156 635.472656 806.035156 635.855469 805.113281 C 636.234375 804.195312 636.523438 803.246094 636.71875 802.269531 C 636.910156 801.292969 637.007812 800.308594 637.007812 799.3125 Z M 637.007812 799.3125 " fill-opacity="1" fill-rule="nonzero"/><path fill="#3d52a0" d="M 765.164062 775.320312 C 765.164062 774.324219 765.066406 773.335938 764.875 772.359375 C 764.679688 771.382812 764.390625 770.4375 764.011719 769.515625 C 763.628906 768.597656 763.164062 767.722656 762.609375 766.894531 C 762.054688 766.066406 761.425781 765.300781 760.722656 764.597656 C 760.019531 763.890625 759.253906 763.261719 758.425781 762.710938 C 757.597656 762.15625 756.722656 761.6875 755.804688 761.308594 C 754.882812 760.925781 753.933594 760.640625 752.957031 760.445312 C 751.980469 760.25 750.996094 760.152344 750 760.152344 C 749.003906 760.152344 748.019531 760.25 747.042969 760.445312 C 746.066406 760.640625 745.117188 760.925781 744.195312 761.308594 C 743.277344 761.6875 742.402344 762.15625 741.574219 762.710938 C 740.746094 763.261719 739.980469 763.890625 739.277344 764.597656 C 738.574219 765.300781 737.945312 766.066406 737.390625 766.894531 C 736.835938 767.722656 736.371094 768.597656 735.988281 769.515625 C 735.609375 770.4375 735.320312 771.382812 735.125 772.359375 C 734.933594 773.335938 734.835938 774.324219 734.835938 775.320312 C 734.835938 776.316406 734.933594 777.300781 735.125 778.277344 C 735.320312 779.253906 735.609375 780.203125 735.988281 781.121094 C 736.371094 782.042969 736.835938 782.917969 737.390625 783.746094 C 737.945312 784.574219 738.574219 785.339844 739.277344 786.042969 C 739.980469 786.746094 740.746094 787.375 741.574219 787.929688 C 742.402344 788.480469 743.277344 788.949219 744.195312 789.328125 C 745.117188 789.710938 746.066406 790 747.042969 790.191406 C 748.019531 790.386719 749.003906 790.484375 750 790.484375 C 750.996094 790.484375 751.980469 790.386719 752.957031 790.191406 C 753.933594 790 754.882812 789.710938 755.804688 789.328125 C 756.722656 788.949219 757.597656 788.480469 758.425781 787.929688 C 759.253906 787.375 760.019531 786.746094 760.722656 786.042969 C 761.425781 785.339844 762.054688 784.574219 762.609375 783.746094 C 763.164062 782.917969 763.628906 782.042969 764.011719 781.121094 C 764.390625 780.203125 764.679688 779.253906 764.875 778.277344 C 765.066406 777.300781 765.164062 776.316406 765.164062 775.320312 Z M 765.164062 775.320312 " fill-opacity="1" fill-rule="nonzero"/><path fill="#3d52a0" d="M 893.320312 643.359375 C 893.320312 642.363281 893.222656 641.378906 893.03125 640.402344 C 892.835938 639.425781 892.546875 638.476562 892.167969 637.558594 C 891.785156 636.636719 891.320312 635.761719 890.765625 634.933594 C 890.210938 634.105469 889.582031 633.339844 888.878906 632.636719 C 888.175781 631.933594 887.410156 631.304688 886.582031 630.75 C 885.753906 630.199219 884.878906 629.730469 883.960938 629.347656 C 883.039062 628.96875 882.089844 628.679688 881.113281 628.488281 C 880.136719 628.292969 879.152344 628.195312 878.15625 628.195312 C 877.160156 628.195312 876.175781 628.292969 875.199219 628.488281 C 874.222656 628.679688 873.273438 628.96875 872.351562 629.347656 C 871.433594 629.730469 870.558594 630.199219 869.730469 630.75 C 868.902344 631.304688 868.136719 631.933594 867.433594 632.636719 C 866.730469 633.339844 866.101562 634.105469 865.546875 634.933594 C 864.992188 635.761719 864.527344 636.636719 864.144531 637.558594 C 863.765625 638.476562 863.476562 639.425781 863.28125 640.402344 C 863.089844 641.378906 862.992188 642.363281 862.992188 643.359375 C 862.992188 644.355469 863.089844 645.34375 863.28125 646.320312 C 863.476562 647.296875 863.765625 648.242188 864.144531 649.164062 C 864.527344 650.082031 864.992188 650.957031 865.546875 651.785156 C 866.101562 652.613281 866.730469 653.378906 867.433594 654.082031 C 868.136719 654.789062 868.902344 655.417969 869.730469 655.96875 C 870.558594 656.523438 871.433594 656.988281 872.351562 657.371094 C 873.273438 657.75 874.222656 658.039062 875.199219 658.234375 C 876.175781 658.429688 877.160156 658.523438 878.15625 658.523438 C 879.152344 658.523438 880.136719 658.429688 881.113281 658.234375 C 882.089844 658.039062 883.039062 657.75 883.960938 657.371094 C 884.878906 656.988281 885.753906 656.523438 886.582031 655.96875 C 887.410156 655.417969 888.175781 654.789062 888.878906 654.082031 C 889.582031 653.378906 890.210938 652.613281 890.765625 651.785156 C 891.320312 650.957031 891.785156 650.082031 892.167969 649.164062 C 892.546875 648.242188 892.835938 647.296875 893.03125 646.320312 C 893.222656 645.34375 893.320312 644.355469 893.320312 643.359375 Z M 893.320312 643.359375 " fill-opacity="1" fill-rule="nonzero"/><path fill="#3d52a0" d="M 1021.476562 607.371094 C 1021.476562 606.375 1021.378906 605.390625 1021.1875 604.414062 C 1020.992188 603.4375 1020.703125 602.488281 1020.324219 601.566406 C 1019.941406 600.648438 1019.476562 599.773438 1018.921875 598.945312 C 1018.367188 598.117188 1017.738281 597.351562 1017.035156 596.648438 C 1016.332031 595.945312 1015.566406 595.316406 1014.738281 594.761719 C 1013.910156 594.207031 1013.035156 593.742188 1012.117188 593.359375 C 1011.195312 592.980469 1010.246094 592.691406 1009.269531 592.496094 C 1008.292969 592.304688 1007.308594 592.207031 1006.3125 592.207031 C 1005.316406 592.207031 1004.332031 592.304688 1003.355469 592.496094 C 1002.378906 592.691406 1001.429688 592.980469 1000.507812 593.359375 C 999.589844 593.742188 998.714844 594.207031 997.886719 594.761719 C 997.058594 595.316406 996.292969 595.945312 995.589844 596.648438 C 994.882812 597.351562 994.257812 598.117188 993.703125 598.945312 C 993.148438 599.773438 992.683594 600.648438 992.300781 601.566406 C 991.921875 602.488281 991.632812 603.4375 991.4375 604.414062 C 991.246094 605.390625 991.148438 606.375 991.148438 607.371094 C 991.148438 608.367188 991.246094 609.351562 991.4375 610.328125 C 991.632812 611.304688 991.921875 612.253906 992.300781 613.175781 C 992.683594 614.09375 993.148438 614.96875 993.703125 615.796875 C 994.257812 616.625 994.882812 617.390625 995.589844 618.09375 C 996.292969 618.796875 997.058594 619.425781 997.886719 619.980469 C 998.714844 620.535156 999.589844 621 1000.507812 621.382812 C 1001.429688 621.761719 1002.378906 622.050781 1003.355469 622.246094 C 1004.332031 622.4375 1005.316406 622.535156 1006.3125 622.535156 C 1007.308594 622.535156 1008.292969 622.4375 1009.269531 622.246094 C 1010.246094 622.050781 1011.195312 621.761719 1012.117188 621.382812 C 1013.035156 621 1013.910156 620.535156 1014.738281 619.980469 C 1015.566406 619.425781 1016.332031 618.796875 1017.035156 618.09375 C 1017.738281 617.390625 1018.367188 616.625 1018.921875 615.796875 C 1019.476562 614.96875 1019.941406 614.09375 1020.324219 613.175781 C 1020.703125 612.253906 1020.992188 611.304688 1021.1875 610.328125 C 1021.378906 609.351562 1021.476562 608.367188 1021.476562 607.371094 Z M 1021.476562 607.371094 " fill-opacity="1" fill-rule="nonzero"/><g mask="url(#a2f8254f0b)"><g transform="matrix(1, 0, 0, 1, 930, 421)"><g clip-path="url(#38079d0dde)"><g clip-path="url(#c7e62e1f99)"><g clip-path="url(#a326c2256b)"><path fill="#5f7ef0" d="M 0.523438 1.070312 L 205.3125 1.070312 L 205.3125 77.160156 L 0.523438 77.160156 Z M 0.523438 1.070312 " fill-opacity="1" fill-rule="nonzero"/></g></g></g></g></g><g fill="#3d52a0" fill-opacity="1"><g transform="translate(385.652404, 474.365603)"><g><path d="M 12.515625 0.296875 C 10.585938 0.296875 8.859375 -0.046875 7.328125 -0.734375 C 5.804688 -1.421875 4.609375 -2.375 3.734375 -3.59375 C 2.867188 -4.8125 2.421875 -6.21875 2.390625 -7.8125 L 6.46875 -7.8125 C 6.601562 -6.4375 7.164062 -5.28125 8.15625 -4.34375 C 9.15625 -3.40625 10.609375 -2.9375 12.515625 -2.9375 C 14.335938 -2.9375 15.769531 -3.390625 16.8125 -4.296875 C 17.863281 -5.210938 18.390625 -6.382812 18.390625 -7.8125 C 18.390625 -8.925781 18.082031 -9.832031 17.46875 -10.53125 C 16.851562 -11.238281 16.082031 -11.773438 15.15625 -12.140625 C 14.238281 -12.503906 12.992188 -12.894531 11.421875 -13.3125 C 9.492188 -13.8125 7.945312 -14.3125 6.78125 -14.8125 C 5.625 -15.320312 4.628906 -16.113281 3.796875 -17.1875 C 2.972656 -18.269531 2.5625 -19.722656 2.5625 -21.546875 C 2.5625 -23.140625 2.96875 -24.550781 3.78125 -25.78125 C 4.59375 -27.019531 5.734375 -27.972656 7.203125 -28.640625 C 8.671875 -29.316406 10.359375 -29.65625 12.265625 -29.65625 C 15.003906 -29.65625 17.25 -28.96875 19 -27.59375 C 20.75 -26.21875 21.738281 -24.398438 21.96875 -22.140625 L 17.765625 -22.140625 C 17.628906 -23.253906 17.039062 -24.238281 16 -25.09375 C 14.96875 -25.945312 13.597656 -26.375 11.890625 -26.375 C 10.285156 -26.375 8.976562 -25.957031 7.96875 -25.125 C 6.96875 -24.300781 6.46875 -23.148438 6.46875 -21.671875 C 6.46875 -20.609375 6.769531 -19.738281 7.375 -19.0625 C 7.976562 -18.394531 8.71875 -17.882812 9.59375 -17.53125 C 10.476562 -17.1875 11.71875 -16.789062 13.3125 -16.34375 C 15.25 -15.8125 16.800781 -15.285156 17.96875 -14.765625 C 19.144531 -14.242188 20.15625 -13.441406 21 -12.359375 C 21.84375 -11.285156 22.265625 -9.828125 22.265625 -7.984375 C 22.265625 -6.554688 21.882812 -5.210938 21.125 -3.953125 C 20.363281 -2.691406 19.242188 -1.664062 17.765625 -0.875 C 16.285156 -0.09375 14.535156 0.296875 12.515625 0.296875 Z M 12.515625 0.296875 "/></g></g></g><g fill="#3d52a0" fill-opacity="1"><g transform="translate(410.306397, 474.365603)"><g><path d="M 1.8125 -11.59375 C 1.8125 -13.945312 2.285156 -16.007812 3.234375 -17.78125 C 4.179688 -19.5625 5.488281 -20.941406 7.15625 -21.921875 C 8.820312 -22.898438 10.675781 -23.390625 12.71875 -23.390625 C 14.738281 -23.390625 16.488281 -22.957031 17.96875 -22.09375 C 19.457031 -21.226562 20.566406 -20.132812 21.296875 -18.8125 L 21.296875 -23.015625 L 25.15625 -23.015625 L 25.15625 0 L 21.296875 0 L 21.296875 -4.28125 C 20.535156 -2.9375 19.40625 -1.820312 17.90625 -0.9375 C 16.414062 -0.0625 14.675781 0.375 12.6875 0.375 C 10.644531 0.375 8.796875 -0.125 7.140625 -1.125 C 5.484375 -2.132812 4.179688 -3.550781 3.234375 -5.375 C 2.285156 -7.195312 1.8125 -9.269531 1.8125 -11.59375 Z M 21.296875 -11.546875 C 21.296875 -13.285156 20.941406 -14.796875 20.234375 -16.078125 C 19.535156 -17.367188 18.59375 -18.359375 17.40625 -19.046875 C 16.21875 -19.734375 14.910156 -20.078125 13.484375 -20.078125 C 12.054688 -20.078125 10.753906 -19.738281 9.578125 -19.0625 C 8.398438 -18.394531 7.460938 -17.414062 6.765625 -16.125 C 6.066406 -14.84375 5.71875 -13.332031 5.71875 -11.59375 C 5.71875 -9.832031 6.066406 -8.300781 6.765625 -7 C 7.460938 -5.695312 8.398438 -4.703125 9.578125 -4.015625 C 10.753906 -3.328125 12.054688 -2.984375 13.484375 -2.984375 C 14.910156 -2.984375 16.21875 -3.328125 17.40625 -4.015625 C 18.59375 -4.703125 19.535156 -5.695312 20.234375 -7 C 20.941406 -8.300781 21.296875 -9.816406 21.296875 -11.546875 Z M 21.296875 -11.546875 "/></g></g><g transform="translate(438.698395, 474.365603)"><g><path d="M 7.0625 -31.078125 L 7.0625 0 L 3.234375 0 L 3.234375 -31.078125 Z M 7.0625 -31.078125 "/></g></g><g transform="translate(449.030394, 474.365603)"><g><path d="M 24.234375 -12.390625 C 24.234375 -11.660156 24.191406 -10.890625 24.109375 -10.078125 L 5.71875 -10.078125 C 5.851562 -7.804688 6.625 -6.035156 8.03125 -4.765625 C 9.445312 -3.492188 11.164062 -2.859375 13.1875 -2.859375 C 14.84375 -2.859375 16.222656 -3.242188 17.328125 -4.015625 C 18.429688 -4.785156 19.207031 -5.8125 19.65625 -7.09375 L 23.765625 -7.09375 C 23.148438 -4.882812 21.914062 -3.085938 20.0625 -1.703125 C 18.21875 -0.316406 15.925781 0.375 13.1875 0.375 C 11 0.375 9.046875 -0.113281 7.328125 -1.09375 C 5.609375 -2.070312 4.257812 -3.460938 3.28125 -5.265625 C 2.300781 -7.078125 1.8125 -9.171875 1.8125 -11.546875 C 1.8125 -13.929688 2.285156 -16.019531 3.234375 -17.8125 C 4.179688 -19.601562 5.515625 -20.976562 7.234375 -21.9375 C 8.960938 -22.90625 10.945312 -23.390625 13.1875 -23.390625 C 15.375 -23.390625 17.304688 -22.910156 18.984375 -21.953125 C 20.660156 -21.003906 21.953125 -19.695312 22.859375 -18.03125 C 23.773438 -16.375 24.234375 -14.492188 24.234375 -12.390625 Z M 20.28125 -13.1875 C 20.28125 -14.644531 19.957031 -15.894531 19.3125 -16.9375 C 18.675781 -17.988281 17.800781 -18.785156 16.6875 -19.328125 C 15.582031 -19.878906 14.359375 -20.15625 13.015625 -20.15625 C 11.085938 -20.15625 9.441406 -19.539062 8.078125 -18.3125 C 6.722656 -17.082031 5.945312 -15.375 5.75 -13.1875 Z M 20.28125 -13.1875 "/></g></g><g transform="translate(475.070391, 474.365603)"><g><path d="M 11.375 0.375 C 9.613281 0.375 8.03125 0.078125 6.625 -0.515625 C 5.226562 -1.117188 4.125 -1.957031 3.3125 -3.03125 C 2.5 -4.113281 2.050781 -5.359375 1.96875 -6.765625 L 5.921875 -6.765625 C 6.035156 -5.617188 6.570312 -4.679688 7.53125 -3.953125 C 8.5 -3.222656 9.769531 -2.859375 11.34375 -2.859375 C 12.800781 -2.859375 13.945312 -3.175781 14.78125 -3.8125 C 15.625 -4.457031 16.046875 -5.273438 16.046875 -6.265625 C 16.046875 -7.265625 15.597656 -8.007812 14.703125 -8.5 C 13.804688 -8.988281 12.421875 -9.472656 10.546875 -9.953125 C 8.835938 -10.398438 7.441406 -10.851562 6.359375 -11.3125 C 5.285156 -11.78125 4.363281 -12.46875 3.59375 -13.375 C 2.820312 -14.28125 2.4375 -15.476562 2.4375 -16.96875 C 2.4375 -18.144531 2.785156 -19.222656 3.484375 -20.203125 C 4.179688 -21.179688 5.175781 -21.957031 6.46875 -22.53125 C 7.757812 -23.101562 9.226562 -23.390625 10.875 -23.390625 C 13.425781 -23.390625 15.484375 -22.742188 17.046875 -21.453125 C 18.617188 -20.171875 19.460938 -18.410156 19.578125 -16.171875 L 15.75 -16.171875 C 15.664062 -17.367188 15.179688 -18.332031 14.296875 -19.0625 C 13.421875 -19.789062 12.238281 -20.15625 10.75 -20.15625 C 9.375 -20.15625 8.28125 -19.859375 7.46875 -19.265625 C 6.664062 -18.679688 6.265625 -17.914062 6.265625 -16.96875 C 6.265625 -16.207031 6.507812 -15.582031 7 -15.09375 C 7.488281 -14.601562 8.101562 -14.210938 8.84375 -13.921875 C 9.582031 -13.628906 10.609375 -13.300781 11.921875 -12.9375 C 13.578125 -12.488281 14.921875 -12.046875 15.953125 -11.609375 C 16.992188 -11.179688 17.882812 -10.53125 18.625 -9.65625 C 19.363281 -8.789062 19.75 -7.660156 19.78125 -6.265625 C 19.78125 -5.003906 19.429688 -3.867188 18.734375 -2.859375 C 18.035156 -1.847656 17.046875 -1.054688 15.765625 -0.484375 C 14.492188 0.0859375 13.03125 0.375 11.375 0.375 Z M 11.375 0.375 "/></g></g></g><g fill="#3d52a0" fill-opacity="1"><g transform="translate(496.994389, 474.365603)"><g/></g></g><g fill="#3d52a0" fill-opacity="1"><g transform="translate(508.208385, 474.365603)"><g><path d="M 25.40625 -20.796875 C 24.59375 -22.503906 23.414062 -23.828125 21.875 -24.765625 C 20.34375 -25.703125 18.550781 -26.171875 16.5 -26.171875 C 14.457031 -26.171875 12.617188 -25.703125 10.984375 -24.765625 C 9.347656 -23.828125 8.0625 -22.484375 7.125 -20.734375 C 6.1875 -18.984375 5.71875 -16.957031 5.71875 -14.65625 C 5.71875 -12.363281 6.1875 -10.347656 7.125 -8.609375 C 8.0625 -6.867188 9.347656 -5.53125 10.984375 -4.59375 C 12.617188 -3.65625 14.457031 -3.1875 16.5 -3.1875 C 19.363281 -3.1875 21.71875 -4.039062 23.5625 -5.75 C 25.40625 -7.457031 26.484375 -9.769531 26.796875 -12.6875 L 15.125 -12.6875 L 15.125 -15.796875 L 30.875 -15.796875 L 30.875 -12.859375 C 30.644531 -10.441406 29.882812 -8.234375 28.59375 -6.234375 C 27.3125 -4.234375 25.617188 -2.648438 23.515625 -1.484375 C 21.421875 -0.328125 19.082031 0.25 16.5 0.25 C 13.789062 0.25 11.316406 -0.382812 9.078125 -1.65625 C 6.835938 -2.925781 5.066406 -4.695312 3.765625 -6.96875 C 2.460938 -9.238281 1.8125 -11.800781 1.8125 -14.65625 C 1.8125 -17.507812 2.460938 -20.078125 3.765625 -22.359375 C 5.066406 -24.640625 6.835938 -26.414062 9.078125 -27.6875 C 11.316406 -28.96875 13.789062 -29.609375 16.5 -29.609375 C 19.613281 -29.609375 22.363281 -28.835938 24.75 -27.296875 C 27.144531 -25.753906 28.890625 -23.585938 29.984375 -20.796875 Z M 25.40625 -20.796875 "/></g></g></g><g fill="#3d52a0" fill-opacity="1"><g transform="translate(540.884377, 474.365603)"><g><path d="M 7.0625 -19.28125 C 7.726562 -20.59375 8.679688 -21.613281 9.921875 -22.34375 C 11.171875 -23.070312 12.691406 -23.4375 14.484375 -23.4375 L 14.484375 -19.484375 L 13.484375 -19.484375 C 9.203125 -19.484375 7.0625 -17.160156 7.0625 -12.515625 L 7.0625 0 L 3.234375 0 L 3.234375 -23.015625 L 7.0625 -23.015625 Z M 7.0625 -19.28125 "/></g></g><g transform="translate(556.550376, 474.365603)"><g><path d="M 13.265625 0.375 C 11.109375 0.375 9.15625 -0.113281 7.40625 -1.09375 C 5.65625 -2.070312 4.285156 -3.460938 3.296875 -5.265625 C 2.304688 -7.078125 1.8125 -9.171875 1.8125 -11.546875 C 1.8125 -13.898438 2.320312 -15.976562 3.34375 -17.78125 C 4.363281 -19.59375 5.753906 -20.976562 7.515625 -21.9375 C 9.273438 -22.90625 11.25 -23.390625 13.4375 -23.390625 C 15.625 -23.390625 17.597656 -22.90625 19.359375 -21.9375 C 21.128906 -20.976562 22.523438 -19.601562 23.546875 -17.8125 C 24.566406 -16.019531 25.078125 -13.929688 25.078125 -11.546875 C 25.078125 -9.171875 24.550781 -7.078125 23.5 -5.265625 C 22.445312 -3.460938 21.023438 -2.070312 19.234375 -1.09375 C 17.441406 -0.113281 15.453125 0.375 13.265625 0.375 Z M 13.265625 -2.984375 C 14.640625 -2.984375 15.925781 -3.300781 17.125 -3.9375 C 18.332031 -4.582031 19.304688 -5.550781 20.046875 -6.84375 C 20.796875 -8.132812 21.171875 -9.703125 21.171875 -11.546875 C 21.171875 -13.398438 20.804688 -14.96875 20.078125 -16.25 C 19.347656 -17.539062 18.394531 -18.5 17.21875 -19.125 C 16.039062 -19.757812 14.765625 -20.078125 13.390625 -20.078125 C 11.992188 -20.078125 10.710938 -19.757812 9.546875 -19.125 C 8.390625 -18.5 7.460938 -17.539062 6.765625 -16.25 C 6.066406 -14.96875 5.71875 -13.398438 5.71875 -11.546875 C 5.71875 -9.671875 6.054688 -8.085938 6.734375 -6.796875 C 7.421875 -5.515625 8.335938 -4.554688 9.484375 -3.921875 C 10.640625 -3.296875 11.898438 -2.984375 13.265625 -2.984375 Z M 13.265625 -2.984375 "/></g></g></g><g fill="#3d52a0" fill-opacity="1"><g transform="translate(583.430371, 474.365603)"><g><path d="M 33.890625 -23.015625 L 26.71875 0 L 22.765625 0 L 17.21875 -18.265625 L 11.671875 0 L 7.734375 0 L 0.5 -23.015625 L 4.40625 -23.015625 L 9.703125 -3.703125 L 15.40625 -23.015625 L 19.3125 -23.015625 L 24.90625 -3.65625 L 30.109375 -23.015625 Z M 33.890625 -23.015625 "/></g></g></g><g fill="#3d52a0" fill-opacity="1"><g transform="translate(617.870356, 474.365603)"><g><path d="M 7.890625 -19.859375 L 7.890625 -6.296875 C 7.890625 -5.179688 8.128906 -4.390625 8.609375 -3.921875 C 9.085938 -3.460938 9.914062 -3.234375 11.09375 -3.234375 L 13.90625 -3.234375 L 13.90625 0 L 10.453125 0 C 8.328125 0 6.734375 -0.488281 5.671875 -1.46875 C 4.609375 -2.445312 4.078125 -4.054688 4.078125 -6.296875 L 4.078125 -19.859375 L 1.09375 -19.859375 L 1.09375 -23.015625 L 4.078125 -23.015625 L 4.078125 -28.8125 L 7.890625 -28.8125 L 7.890625 -23.015625 L 13.90625 -23.015625 L 13.90625 -19.859375 Z M 7.890625 -19.859375 "/></g></g></g><g fill="#3d52a0" fill-opacity="1"><g transform="translate(633.158357, 474.365603)"><g><path d="M 14.65625 -23.4375 C 16.394531 -23.4375 17.960938 -23.0625 19.359375 -22.3125 C 20.765625 -21.570312 21.863281 -20.460938 22.65625 -18.984375 C 23.457031 -17.503906 23.859375 -15.695312 23.859375 -13.5625 L 23.859375 0 L 20.078125 0 L 20.078125 -13.015625 C 20.078125 -15.316406 19.5 -17.078125 18.34375 -18.296875 C 17.195312 -19.515625 15.632812 -20.125 13.65625 -20.125 C 11.632812 -20.125 10.03125 -19.492188 8.84375 -18.234375 C 7.65625 -16.972656 7.0625 -15.132812 7.0625 -12.71875 L 7.0625 0 L 3.234375 0 L 3.234375 -31.078125 L 7.0625 -31.078125 L 7.0625 -19.734375 C 7.8125 -20.910156 8.851562 -21.820312 10.1875 -22.46875 C 11.519531 -23.113281 13.007812 -23.4375 14.65625 -23.4375 Z M 14.65625 -23.4375 "/></g></g></g><g fill="#ede8f5" fill-opacity="1"><g transform="translate(969.199451, 474.365603)"><g><path d="M 25.078125 -13.734375 L 16.125 -13.734375 L 16.125 -4.65625 L 12.5625 -4.65625 L 12.5625 -13.734375 L 3.65625 -13.734375 L 3.65625 -16.96875 L 12.5625 -16.96875 L 12.5625 -26.078125 L 16.125 -26.078125 L 16.125 -16.96875 L 25.078125 -16.96875 Z M 25.078125 -13.734375 "/></g></g><g transform="translate(997.885448, 474.365603)"><g><path d="M 2.140625 -3.0625 C 5.691406 -5.914062 8.476562 -8.257812 10.5 -10.09375 C 12.519531 -11.9375 14.222656 -13.859375 15.609375 -15.859375 C 16.992188 -17.859375 17.6875 -19.820312 17.6875 -21.75 C 17.6875 -23.570312 17.242188 -25.007812 16.359375 -26.0625 C 15.472656 -27.113281 14.050781 -27.640625 12.09375 -27.640625 C 10.1875 -27.640625 8.707031 -27.039062 7.65625 -25.84375 C 6.613281 -24.65625 6.050781 -23.066406 5.96875 -21.078125 L 2.265625 -21.078125 C 2.378906 -24.210938 3.332031 -26.632812 5.125 -28.34375 C 6.914062 -30.050781 9.222656 -30.90625 12.046875 -30.90625 C 14.929688 -30.90625 17.222656 -30.109375 18.921875 -28.515625 C 20.617188 -26.921875 21.46875 -24.722656 21.46875 -21.921875 C 21.46875 -19.597656 20.769531 -17.335938 19.375 -15.140625 C 17.988281 -12.941406 16.414062 -11.007812 14.65625 -9.34375 C 12.894531 -7.675781 10.640625 -5.738281 7.890625 -3.53125 L 22.34375 -3.53125 L 22.34375 -0.34375 L 2.140625 -0.34375 Z M 2.140625 -3.0625 "/></g></g><g transform="translate(1022.035446, 474.365603)"><g><path d="M 1.6875 -6.765625 L 1.6875 -9.65625 L 16.421875 -30.078125 L 21 -30.078125 L 21 -10.078125 L 25.203125 -10.078125 L 25.203125 -6.765625 L 21 -6.765625 L 21 0 L 17.21875 0 L 17.21875 -6.765625 Z M 17.390625 -26.078125 L 6.09375 -10.078125 L 17.390625 -10.078125 Z M 17.390625 -26.078125 "/></g></g><g transform="translate(1048.453444, 474.365603)"><g><path d="M 1.6875 -6.765625 L 1.6875 -9.65625 L 16.421875 -30.078125 L 21 -30.078125 L 21 -10.078125 L 25.203125 -10.078125 L 25.203125 -6.765625 L 21 -6.765625 L 21 0 L 17.21875 0 L 17.21875 -6.765625 Z M 17.390625 -26.078125 L 6.09375 -10.078125 L 17.390625 -10.078125 Z M 17.390625 -26.078125 "/></g></g><g transform="translate(1074.871442, 474.365603)"><g><path d="M 16.09375 0 L 7.0625 -10.15625 L 7.0625 0 L 3.234375 0 L 3.234375 -31.078125 L 7.0625 -31.078125 L 7.0625 -12.8125 L 15.921875 -23.015625 L 21.25 -23.015625 L 10.421875 -11.546875 L 21.296875 0 Z M 16.09375 0 "/></g></g></g></svg>