<svg xmlns="http://www.w3.org/2000/svg" xmlns:xlink="http://www.w3.org/1999/xlink" width="2000" zoomAndPan="magnify" viewBox="0 0 1500 1499.999933" height="2000" preserveAspectRatio="xMidYMid meet" version="1.0"><defs><g/><clipPath id="98494f9d1e"><path d="M 288 392 L 1211.46875 392 L 1211.46875 1107.933594 L 288 1107.933594 Z M 288 392 " clip-rule="nonzero"/></clipPath><clipPath id="f3509a9116"><path d="M 359.175781 392.066406 L 1140.824219 392.066406 C 1179.761719 392.066406 1211.324219 423.632812 1211.324219 462.566406 L 1211.324219 1037.433594 C 1211.324219 1076.367188 1179.761719 1107.933594 1140.824219 1107.933594 L 359.175781 1107.933594 C 320.238281 1107.933594 288.675781 1076.367188 288.675781 1037.433594 L 288.675781 462.566406 C 288.675781 423.632812 320.238281 392.066406 359.175781 392.066406 Z M 359.175781 392.066406 " clip-rule="nonzero"/></clipPath><clipPath id="e4468ec49c"><path d="M 364.804688 547.976562 L 1135 547.976562 L 1135 1050.648438 L 364.804688 1050.648438 Z M 364.804688 547.976562 " clip-rule="nonzero"/></clipPath><clipPath id="bf551838bc"><path d="M 435.304688 547.976562 L 1064.695312 547.976562 C 1103.632812 547.976562 1135.195312 579.539062 1135.195312 618.476562 L 1135.195312 980.148438 C 1135.195312 1019.082031 1103.632812 1050.648438 1064.695312 1050.648438 L 435.304688 1050.648438 C 396.367188 1050.648438 364.804688 1019.082031 364.804688 980.148438 L 364.804688 618.476562 C 364.804688 579.539062 396.367188 547.976562 435.304688 547.976562 Z M 435.304688 547.976562 " clip-rule="nonzero"/></clipPath><clipPath id="095004475d"><path d="M 419.503906 897.105469 L 1032.941406 897.105469 L 1032.941406 923.894531 L 419.503906 923.894531 Z M 419.503906 897.105469 " clip-rule="nonzero"/></clipPath><clipPath id="6b88f0db99"><path d="M 432.902344 897.105469 L 1019.464844 897.105469 C 1023.019531 897.105469 1026.425781 898.515625 1028.9375 901.027344 C 1031.449219 903.539062 1032.859375 906.949219 1032.859375 910.5 C 1032.859375 914.050781 1031.449219 917.460938 1028.9375 919.972656 C 1026.425781 922.484375 1023.019531 923.894531 1019.464844 923.894531 L 432.902344 923.894531 C 429.347656 923.894531 425.941406 922.484375 423.429688 919.972656 C 420.917969 917.460938 419.503906 914.050781 419.503906 910.5 C 419.503906 906.949219 420.917969 903.539062 423.429688 901.027344 C 425.941406 898.515625 429.347656 897.105469 432.902344 897.105469 Z M 432.902344 897.105469 " clip-rule="nonzero"/></clipPath><clipPath id="f214aa4110"><path d="M 419.503906 723.441406 L 1032.867188 723.441406 L 1032.867188 750 L 419.503906 750 Z M 419.503906 723.441406 " clip-rule="nonzero"/></clipPath><clipPath id="ff1e77f5cc"><path d="M 432.785156 723.441406 L 1019.582031 723.441406 C 1026.914062 723.441406 1032.859375 729.386719 1032.859375 736.71875 C 1032.859375 744.054688 1026.914062 750 1019.582031 750 L 432.785156 750 C 425.453125 750 419.503906 744.054688 419.503906 736.71875 C 419.503906 729.386719 425.453125 723.441406 432.785156 723.441406 Z M 432.785156 723.441406 " clip-rule="nonzero"/></clipPath><clipPath id="da716a7d9f"><path d="M 419.503906 897.105469 L 915.632812 897.105469 L 915.632812 923.894531 L 419.503906 923.894531 Z M 419.503906 897.105469 " clip-rule="nonzero"/></clipPath><clipPath id="2babc6fd70"><path d="M 432.902344 897.105469 L 902.210938 897.105469 C 905.765625 897.105469 909.171875 898.515625 911.683594 901.027344 C 914.195312 903.539062 915.605469 906.949219 915.605469 910.5 C 915.605469 914.050781 914.195312 917.460938 911.683594 919.972656 C 909.171875 922.484375 905.765625 923.894531 902.210938 923.894531 L 432.902344 923.894531 C 429.347656 923.894531 425.941406 922.484375 423.429688 919.972656 C 420.917969 917.460938 419.503906 914.050781 419.503906 910.5 C 419.503906 906.949219 420.917969 903.539062 423.429688 901.027344 C 425.941406 898.515625 429.347656 897.105469 432.902344 897.105469 Z M 432.902344 897.105469 " clip-rule="nonzero"/></clipPath><clipPath id="b33d55f594"><path d="M 419.503906 723.441406 L 667.597656 723.441406 L 667.597656 746.46875 L 419.503906 746.46875 Z M 419.503906 723.441406 " clip-rule="nonzero"/></clipPath><clipPath id="eb7a83846c"><path d="M 431.019531 723.441406 L 656.042969 723.441406 C 662.402344 723.441406 667.554688 728.59375 667.554688 734.953125 C 667.554688 741.3125 662.402344 746.46875 656.042969 746.46875 L 431.019531 746.46875 C 424.660156 746.46875 419.503906 741.3125 419.503906 734.953125 C 419.503906 728.59375 424.660156 723.441406 431.019531 723.441406 Z M 431.019531 723.441406 " clip-rule="nonzero"/></clipPath></defs><g clip-path="url(#98494f9d1e)"><g clip-path="url(#f3509a9116)"><path fill="#ede8f5" d="M 288.675781 392.066406 L 1211.46875 392.066406 L 1211.46875 1107.933594 L 288.675781 1107.933594 Z M 288.675781 392.066406 " fill-opacity="1" fill-rule="nonzero"/></g></g><g clip-path="url(#e4468ec49c)"><g clip-path="url(#bf551838bc)"><path fill="#ffffff" d="M 364.804688 547.976562 L 1134.519531 547.976562 L 1134.519531 1050.648438 L 364.804688 1050.648438 Z M 364.804688 547.976562 " fill-opacity="1" fill-rule="nonzero"/></g></g><g fill="#3d52a0" fill-opacity="1"><g transform="translate(376.699279, 474.365555)"><g><path d="M 32.921875 -29.0625 L 32.921875 0 L 29.109375 0 L 29.109375 -21.671875 L 19.453125 0 L 16.765625 0 L 7.0625 -21.71875 L 7.0625 0 L 3.234375 0 L 3.234375 -29.0625 L 7.34375 -29.0625 L 18.109375 -5.046875 L 28.859375 -29.0625 Z M 32.921875 -29.0625 "/></g></g></g><g fill="#3d52a0" fill-opacity="1"><g transform="translate(412.861267, 474.365555)"><g><path d="M 13.265625 0.375 C 11.109375 0.375 9.15625 -0.113281 7.40625 -1.09375 C 5.65625 -2.070312 4.285156 -3.460938 3.296875 -5.265625 C 2.304688 -7.078125 1.8125 -9.171875 1.8125 -11.546875 C 1.8125 -13.898438 2.320312 -15.976562 3.34375 -17.78125 C 4.363281 -19.59375 5.753906 -20.976562 7.515625 -21.9375 C 9.273438 -22.90625 11.25 -23.390625 13.4375 -23.390625 C 15.625 -23.390625 17.597656 -22.90625 19.359375 -21.9375 C 21.128906 -20.976562 22.523438 -19.601562 23.546875 -17.8125 C 24.566406 -16.019531 25.078125 -13.929688 25.078125 -11.546875 C 25.078125 -9.171875 24.550781 -7.078125 23.5 -5.265625 C 22.445312 -3.460938 21.023438 -2.070312 19.234375 -1.09375 C 17.441406 -0.113281 15.453125 0.375 13.265625 0.375 Z M 13.265625 -2.984375 C 14.640625 -2.984375 15.925781 -3.300781 17.125 -3.9375 C 18.332031 -4.582031 19.304688 -5.550781 20.046875 -6.84375 C 20.796875 -8.132812 21.171875 -9.703125 21.171875 -11.546875 C 21.171875 -13.398438 20.804688 -14.96875 20.078125 -16.25 C 19.347656 -17.539062 18.394531 -18.5 17.21875 -19.125 C 16.039062 -19.757812 14.765625 -20.078125 13.390625 -20.078125 C 11.992188 -20.078125 10.710938 -19.757812 9.546875 -19.125 C 8.390625 -18.5 7.460938 -17.539062 6.765625 -16.25 C 6.066406 -14.96875 5.71875 -13.398438 5.71875 -11.546875 C 5.71875 -9.671875 6.054688 -8.085938 6.734375 -6.796875 C 7.421875 -5.515625 8.335938 -4.554688 9.484375 -3.921875 C 10.640625 -3.296875 11.898438 -2.984375 13.265625 -2.984375 Z M 13.265625 -2.984375 "/></g></g></g><g fill="#3d52a0" fill-opacity="1"><g transform="translate(439.741262, 474.365555)"><g><path d="M 14.453125 -23.4375 C 17.242188 -23.4375 19.507812 -22.585938 21.25 -20.890625 C 22.988281 -19.203125 23.859375 -16.757812 23.859375 -13.5625 L 23.859375 0 L 20.078125 0 L 20.078125 -13.015625 C 20.078125 -15.316406 19.5 -17.078125 18.34375 -18.296875 C 17.195312 -19.515625 15.632812 -20.125 13.65625 -20.125 C 11.632812 -20.125 10.03125 -19.492188 8.84375 -18.234375 C 7.65625 -16.972656 7.0625 -15.132812 7.0625 -12.71875 L 7.0625 0 L 3.234375 0 L 3.234375 -23.015625 L 7.0625 -23.015625 L 7.0625 -19.734375 C 7.8125 -20.910156 8.835938 -21.820312 10.140625 -22.46875 C 11.441406 -23.113281 12.878906 -23.4375 14.453125 -23.4375 Z M 14.453125 -23.4375 "/></g></g></g><g fill="#3d52a0" fill-opacity="1"><g transform="translate(466.621257, 474.365555)"><g><path d="M 7.890625 -19.859375 L 7.890625 -6.296875 C 7.890625 -5.179688 8.128906 -4.390625 8.609375 -3.921875 C 9.085938 -3.460938 9.914062 -3.234375 11.09375 -3.234375 L 13.90625 -3.234375 L 13.90625 0 L 10.453125 0 C 8.328125 0 6.734375 -0.488281 5.671875 -1.46875 C 4.609375 -2.445312 4.078125 -4.054688 4.078125 -6.296875 L 4.078125 -19.859375 L 1.09375 -19.859375 L 1.09375 -23.015625 L 4.078125 -23.015625 L 4.078125 -28.8125 L 7.890625 -28.8125 L 7.890625 -23.015625 L 13.90625 -23.015625 L 13.90625 -19.859375 Z M 7.890625 -19.859375 "/></g></g></g><g fill="#3d52a0" fill-opacity="1"><g transform="translate(481.909258, 474.365555)"><g><path d="M 14.65625 -23.4375 C 16.394531 -23.4375 17.960938 -23.0625 19.359375 -22.3125 C 20.765625 -21.570312 21.863281 -20.460938 22.65625 -18.984375 C 23.457031 -17.503906 23.859375 -15.695312 23.859375 -13.5625 L 23.859375 0 L 20.078125 0 L 20.078125 -13.015625 C 20.078125 -15.316406 19.5 -17.078125 18.34375 -18.296875 C 17.195312 -19.515625 15.632812 -20.125 13.65625 -20.125 C 11.632812 -20.125 10.03125 -19.492188 8.84375 -18.234375 C 7.65625 -16.972656 7.0625 -15.132812 7.0625 -12.71875 L 7.0625 0 L 3.234375 0 L 3.234375 -31.078125 L 7.0625 -31.078125 L 7.0625 -19.734375 C 7.8125 -20.910156 8.851562 -21.820312 10.1875 -22.46875 C 11.519531 -23.113281 13.007812 -23.4375 14.65625 -23.4375 Z M 14.65625 -23.4375 "/></g></g></g><g fill="#3d52a0" fill-opacity="1"><g transform="translate(508.789252, 474.365555)"><g><path d="M 7.0625 -31.078125 L 7.0625 0 L 3.234375 0 L 3.234375 -31.078125 Z M 7.0625 -31.078125 "/></g></g></g><g fill="#3d52a0" fill-opacity="1"><g transform="translate(519.121252, 474.365555)"><g><path d="M 23.0625 -23.015625 L 9.203125 10.84375 L 5.25 10.84375 L 9.78125 -0.25 L 0.5 -23.015625 L 4.75 -23.015625 L 11.96875 -4.375 L 19.109375 -23.015625 Z M 23.0625 -23.015625 "/></g></g></g><g fill="#3d52a0" fill-opacity="1"><g transform="translate(542.76725, 474.365555)"><g/></g></g><g fill="#3d52a0" fill-opacity="1"><g transform="translate(553.981246, 474.365555)"><g><path d="M 21.25 -29.28125 L 21.25 -26.171875 L 13.265625 -26.171875 L 13.265625 0 L 9.453125 0 L 9.453125 -26.171875 L 1.421875 -26.171875 L 1.421875 -29.28125 Z M 21.25 -29.28125 "/></g></g></g><g fill="#3d52a0" fill-opacity="1"><g transform="translate(576.703236, 474.365555)"><g><path d="M 1.8125 -11.59375 C 1.8125 -13.945312 2.285156 -16.007812 3.234375 -17.78125 C 4.179688 -19.5625 5.488281 -20.941406 7.15625 -21.921875 C 8.820312 -22.898438 10.675781 -23.390625 12.71875 -23.390625 C 14.738281 -23.390625 16.488281 -22.957031 17.96875 -22.09375 C 19.457031 -21.226562 20.566406 -20.132812 21.296875 -18.8125 L 21.296875 -23.015625 L 25.15625 -23.015625 L 25.15625 0 L 21.296875 0 L 21.296875 -4.28125 C 20.535156 -2.9375 19.40625 -1.820312 17.90625 -0.9375 C 16.414062 -0.0625 14.675781 0.375 12.6875 0.375 C 10.644531 0.375 8.796875 -0.125 7.140625 -1.125 C 5.484375 -2.132812 4.179688 -3.550781 3.234375 -5.375 C 2.285156 -7.195312 1.8125 -9.269531 1.8125 -11.59375 Z M 21.296875 -11.546875 C 21.296875 -13.285156 20.941406 -14.796875 20.234375 -16.078125 C 19.535156 -17.367188 18.59375 -18.359375 17.40625 -19.046875 C 16.21875 -19.734375 14.910156 -20.078125 13.484375 -20.078125 C 12.054688 -20.078125 10.753906 -19.738281 9.578125 -19.0625 C 8.398438 -18.394531 7.460938 -17.414062 6.765625 -16.125 C 6.066406 -14.84375 5.71875 -13.332031 5.71875 -11.59375 C 5.71875 -9.832031 6.066406 -8.300781 6.765625 -7 C 7.460938 -5.695312 8.398438 -4.703125 9.578125 -4.015625 C 10.753906 -3.328125 12.054688 -2.984375 13.484375 -2.984375 C 14.910156 -2.984375 16.21875 -3.328125 17.40625 -4.015625 C 18.59375 -4.703125 19.535156 -5.695312 20.234375 -7 C 20.941406 -8.300781 21.296875 -9.816406 21.296875 -11.546875 Z M 21.296875 -11.546875 "/></g></g></g><g fill="#3d52a0" fill-opacity="1"><g transform="translate(605.095225, 474.365555)"><g><path d="M 15.25 0 L 9.78125 -8.5625 L 4.53125 0 L 0.546875 0 L 7.984375 -11.421875 L 0.546875 -23.015625 L 4.875 -23.015625 L 10.328125 -14.484375 L 15.546875 -23.015625 L 19.53125 -23.015625 L 12.140625 -11.640625 L 19.578125 0 Z M 15.25 0 "/></g></g></g><g fill="#3d52a0" fill-opacity="1"><g transform="translate(625.213205, 474.365555)"><g/></g></g><g fill="#3d52a0" fill-opacity="1"><g transform="translate(636.4272, 474.365555)"><g><path d="M 12.515625 0.296875 C 10.585938 0.296875 8.859375 -0.046875 7.328125 -0.734375 C 5.804688 -1.421875 4.609375 -2.375 3.734375 -3.59375 C 2.867188 -4.8125 2.421875 -6.21875 2.390625 -7.8125 L 6.46875 -7.8125 C 6.601562 -6.4375 7.164062 -5.28125 8.15625 -4.34375 C 9.15625 -3.40625 10.609375 -2.9375 12.515625 -2.9375 C 14.335938 -2.9375 15.769531 -3.390625 16.8125 -4.296875 C 17.863281 -5.210938 18.390625 -6.382812 18.390625 -7.8125 C 18.390625 -8.925781 18.082031 -9.832031 17.46875 -10.53125 C 16.851562 -11.238281 16.082031 -11.773438 15.15625 -12.140625 C 14.238281 -12.503906 12.992188 -12.894531 11.421875 -13.3125 C 9.492188 -13.8125 7.945312 -14.3125 6.78125 -14.8125 C 5.625 -15.320312 4.628906 -16.113281 3.796875 -17.1875 C 2.972656 -18.269531 2.5625 -19.722656 2.5625 -21.546875 C 2.5625 -23.140625 2.96875 -24.550781 3.78125 -25.78125 C 4.59375 -27.019531 5.734375 -27.972656 7.203125 -28.640625 C 8.671875 -29.316406 10.359375 -29.65625 12.265625 -29.65625 C 15.003906 -29.65625 17.25 -28.96875 19 -27.59375 C 20.75 -26.21875 21.738281 -24.398438 21.96875 -22.140625 L 17.765625 -22.140625 C 17.628906 -23.253906 17.039062 -24.238281 16 -25.09375 C 14.96875 -25.945312 13.597656 -26.375 11.890625 -26.375 C 10.285156 -26.375 8.976562 -25.957031 7.96875 -25.125 C 6.96875 -24.300781 6.46875 -23.148438 6.46875 -21.671875 C 6.46875 -20.609375 6.769531 -19.738281 7.375 -19.0625 C 7.976562 -18.394531 8.71875 -17.882812 9.59375 -17.53125 C 10.476562 -17.1875 11.71875 -16.789062 13.3125 -16.34375 C 15.25 -15.8125 16.800781 -15.285156 17.96875 -14.765625 C 19.144531 -14.242188 20.15625 -13.441406 21 -12.359375 C 21.84375 -11.285156 22.265625 -9.828125 22.265625 -7.984375 C 22.265625 -6.554688 21.882812 -5.210938 21.125 -3.953125 C 20.363281 -2.691406 19.242188 -1.664062 17.765625 -0.875 C 16.285156 -0.09375 14.535156 0.296875 12.515625 0.296875 Z M 12.515625 0.296875 "/></g></g></g><g fill="#3d52a0" fill-opacity="1"><g transform="translate(661.081183, 474.365555)"><g><path d="M 1.8125 -11.59375 C 1.8125 -13.945312 2.285156 -16.007812 3.234375 -17.78125 C 4.179688 -19.5625 5.488281 -20.941406 7.15625 -21.921875 C 8.820312 -22.898438 10.675781 -23.390625 12.71875 -23.390625 C 14.738281 -23.390625 16.488281 -22.957031 17.96875 -22.09375 C 19.457031 -21.226562 20.566406 -20.132812 21.296875 -18.8125 L 21.296875 -23.015625 L 25.15625 -23.015625 L 25.15625 0 L 21.296875 0 L 21.296875 -4.28125 C 20.535156 -2.9375 19.40625 -1.820312 17.90625 -0.9375 C 16.414062 -0.0625 14.675781 0.375 12.6875 0.375 C 10.644531 0.375 8.796875 -0.125 7.140625 -1.125 C 5.484375 -2.132812 4.179688 -3.550781 3.234375 -5.375 C 2.285156 -7.195312 1.8125 -9.269531 1.8125 -11.59375 Z M 21.296875 -11.546875 C 21.296875 -13.285156 20.941406 -14.796875 20.234375 -16.078125 C 19.535156 -17.367188 18.59375 -18.359375 17.40625 -19.046875 C 16.21875 -19.734375 14.910156 -20.078125 13.484375 -20.078125 C 12.054688 -20.078125 10.753906 -19.738281 9.578125 -19.0625 C 8.398438 -18.394531 7.460938 -17.414062 6.765625 -16.125 C 6.066406 -14.84375 5.71875 -13.332031 5.71875 -11.59375 C 5.71875 -9.832031 6.066406 -8.300781 6.765625 -7 C 7.460938 -5.695312 8.398438 -4.703125 9.578125 -4.015625 C 10.753906 -3.328125 12.054688 -2.984375 13.484375 -2.984375 C 14.910156 -2.984375 16.21875 -3.328125 17.40625 -4.015625 C 18.59375 -4.703125 19.535156 -5.695312 20.234375 -7 C 20.941406 -8.300781 21.296875 -9.816406 21.296875 -11.546875 Z M 21.296875 -11.546875 "/></g></g></g><g fill="#3d52a0" fill-opacity="1"><g transform="translate(689.473194, 474.365555)"><g><path d="M 11.796875 -3.53125 L 18.9375 -23.015625 L 23.015625 -23.015625 L 13.984375 0 L 9.53125 0 L 0.5 -23.015625 L 4.625 -23.015625 Z M 11.796875 -3.53125 "/></g></g></g><g fill="#3d52a0" fill-opacity="1"><g transform="translate(713.035204, 474.365555)"><g><path d="M 24.234375 -12.390625 C 24.234375 -11.660156 24.191406 -10.890625 24.109375 -10.078125 L 5.71875 -10.078125 C 5.851562 -7.804688 6.625 -6.035156 8.03125 -4.765625 C 9.445312 -3.492188 11.164062 -2.859375 13.1875 -2.859375 C 14.84375 -2.859375 16.222656 -3.242188 17.328125 -4.015625 C 18.429688 -4.785156 19.207031 -5.8125 19.65625 -7.09375 L 23.765625 -7.09375 C 23.148438 -4.882812 21.914062 -3.085938 20.0625 -1.703125 C 18.21875 -0.316406 15.925781 0.375 13.1875 0.375 C 11 0.375 9.046875 -0.113281 7.328125 -1.09375 C 5.609375 -2.070312 4.257812 -3.460938 3.28125 -5.265625 C 2.300781 -7.078125 1.8125 -9.171875 1.8125 -11.546875 C 1.8125 -13.929688 2.285156 -16.019531 3.234375 -17.8125 C 4.179688 -19.601562 5.515625 -20.976562 7.234375 -21.9375 C 8.960938 -22.90625 10.945312 -23.390625 13.1875 -23.390625 C 15.375 -23.390625 17.304688 -22.910156 18.984375 -21.953125 C 20.660156 -21.003906 21.953125 -19.695312 22.859375 -18.03125 C 23.773438 -16.375 24.234375 -14.492188 24.234375 -12.390625 Z M 20.28125 -13.1875 C 20.28125 -14.644531 19.957031 -15.894531 19.3125 -16.9375 C 18.675781 -17.988281 17.800781 -18.785156 16.6875 -19.328125 C 15.582031 -19.878906 14.359375 -20.15625 13.015625 -20.15625 C 11.085938 -20.15625 9.441406 -19.539062 8.078125 -18.3125 C 6.722656 -17.082031 5.945312 -15.375 5.75 -13.1875 Z M 20.28125 -13.1875 "/></g></g><g transform="translate(739.075201, 474.365555)"><g><path d="M 1.8125 -11.59375 C 1.8125 -13.945312 2.285156 -16.007812 3.234375 -17.78125 C 4.179688 -19.5625 5.488281 -20.941406 7.15625 -21.921875 C 8.820312 -22.898438 10.691406 -23.390625 12.765625 -23.390625 C 14.554688 -23.390625 16.222656 -22.976562 17.765625 -22.15625 C 19.304688 -21.332031 20.484375 -20.25 21.296875 -18.90625 L 21.296875 -31.078125 L 25.15625 -31.078125 L 25.15625 0 L 21.296875 0 L 21.296875 -4.328125 C 20.535156 -2.953125 19.410156 -1.820312 17.921875 -0.9375 C 16.441406 -0.0625 14.707031 0.375 12.71875 0.375 C 10.675781 0.375 8.820312 -0.125 7.15625 -1.125 C 5.488281 -2.132812 4.179688 -3.550781 3.234375 -5.375 C 2.285156 -7.195312 1.8125 -9.269531 1.8125 -11.59375 Z M 21.296875 -11.546875 C 21.296875 -13.285156 20.941406 -14.796875 20.234375 -16.078125 C 19.535156 -17.367188 18.59375 -18.359375 17.40625 -19.046875 C 16.21875 -19.734375 14.910156 -20.078125 13.484375 -20.078125 C 12.054688 -20.078125 10.753906 -19.738281 9.578125 -19.0625 C 8.398438 -18.394531 7.460938 -17.414062 6.765625 -16.125 C 6.066406 -14.84375 5.71875 -13.332031 5.71875 -11.59375 C 5.71875 -9.832031 6.066406 -8.300781 6.765625 -7 C 7.460938 -5.695312 8.398438 -4.703125 9.578125 -4.015625 C 10.753906 -3.328125 12.054688 -2.984375 13.484375 -2.984375 C 14.910156 -2.984375 16.21875 -3.328125 17.40625 -4.015625 C 18.59375 -4.703125 19.535156 -5.695312 20.234375 -7 C 20.941406 -8.300781 21.296875 -9.816406 21.296875 -11.546875 Z M 21.296875 -11.546875 "/></g></g></g><g clip-path="url(#095004475d)"><g clip-path="url(#6b88f0db99)"><path fill="#dcdcdc" d="M 419.503906 897.105469 L 1032.839844 897.105469 L 1032.839844 923.894531 L 419.503906 923.894531 Z M 419.503906 897.105469 " fill-opacity="1" fill-rule="nonzero"/></g></g><g clip-path="url(#f214aa4110)"><g clip-path="url(#ff1e77f5cc)"><path fill="#dcdcdc" d="M 419.503906 723.441406 L 1032.867188 723.441406 L 1032.867188 750 L 419.503906 750 Z M 419.503906 723.441406 " fill-opacity="1" fill-rule="nonzero"/></g></g><g clip-path="url(#da716a7d9f)"><g clip-path="url(#2babc6fd70)"><path fill="#3d52a0" d="M 419.503906 897.105469 L 915.632812 897.105469 L 915.632812 923.894531 L 419.503906 923.894531 Z M 419.503906 897.105469 " fill-opacity="1" fill-rule="nonzero"/></g></g><g fill="#3d52a0" fill-opacity="1"><g transform="translate(961.855081, 877.938888)"><g><path d="M 13.984375 -16.203125 L 13.984375 -15.6875 L 17.84375 -15.6875 L 17.84375 -13.703125 L 13.828125 -13.703125 C 13.648438 -12.328125 13.253906 -11.25 12.640625 -10.46875 C 12.035156 -9.6875 11.15625 -9.125 10 -8.78125 C 8.851562 -8.445312 7.332031 -8.28125 5.4375 -8.28125 L 5.4375 -5.90625 C 5.4375 -3.207031 6.613281 -1.859375 8.96875 -1.859375 C 11.289062 -1.859375 12.453125 -3.160156 12.453125 -5.765625 L 14.96875 -5.765625 C 14.945312 -3.765625 14.414062 -2.253906 13.375 -1.234375 C 12.332031 -0.210938 10.851562 0.296875 8.9375 0.296875 C 6.957031 0.296875 5.453125 -0.25 4.421875 -1.34375 C 3.390625 -2.445312 2.875 -3.988281 2.875 -5.96875 L 2.875 -10.203125 C 5.15625 -10.203125 6.835938 -10.273438 7.921875 -10.421875 C 9.015625 -10.578125 9.8125 -10.898438 10.3125 -11.390625 C 10.8125 -11.878906 11.132812 -12.648438 11.28125 -13.703125 L 1.53125 -13.703125 L 1.53125 -15.6875 L 11.40625 -15.6875 L 11.40625 -18.9375 L 1.53125 -18.9375 L 1.53125 -20.9375 L 17.84375 -20.9375 L 17.84375 -18.9375 L 13.984375 -18.9375 Z M 13.984375 -16.203125 "/></g></g></g><g fill="#3d52a0" fill-opacity="1"><g transform="translate(980.905063, 877.938888)"><g/></g></g><g fill="#3d52a0" fill-opacity="1"><g transform="translate(988.915057, 877.938888)"><g><path d="M 13.984375 -16.203125 L 13.984375 -15.6875 L 17.84375 -15.6875 L 17.84375 -13.703125 L 13.828125 -13.703125 C 13.648438 -12.328125 13.253906 -11.25 12.640625 -10.46875 C 12.035156 -9.6875 11.15625 -9.125 10 -8.78125 C 8.851562 -8.445312 7.332031 -8.28125 5.4375 -8.28125 L 5.4375 -5.90625 C 5.4375 -3.207031 6.613281 -1.859375 8.96875 -1.859375 C 11.289062 -1.859375 12.453125 -3.160156 12.453125 -5.765625 L 14.96875 -5.765625 C 14.945312 -3.765625 14.414062 -2.253906 13.375 -1.234375 C 12.332031 -0.210938 10.851562 0.296875 8.9375 0.296875 C 6.957031 0.296875 5.453125 -0.25 4.421875 -1.34375 C 3.390625 -2.445312 2.875 -3.988281 2.875 -5.96875 L 2.875 -10.203125 C 5.15625 -10.203125 6.835938 -10.273438 7.921875 -10.421875 C 9.015625 -10.578125 9.8125 -10.898438 10.3125 -11.390625 C 10.8125 -11.878906 11.132812 -12.648438 11.28125 -13.703125 L 1.53125 -13.703125 L 1.53125 -15.6875 L 11.40625 -15.6875 L 11.40625 -18.9375 L 1.53125 -18.9375 L 1.53125 -20.9375 L 17.84375 -20.9375 L 17.84375 -18.9375 L 13.984375 -18.9375 Z M 13.984375 -16.203125 "/></g></g></g><g fill="#3d52a0" fill-opacity="1"><g transform="translate(437.682704, 701.635456)"><g><path d="M 16.296875 -14.796875 C 16.296875 -13.054688 15.695312 -11.609375 14.5 -10.453125 C 13.3125 -9.304688 11.5 -8.734375 9.0625 -8.734375 L 5.046875 -8.734375 L 5.046875 0 L 2.3125 0 L 2.3125 -20.90625 L 9.0625 -20.90625 C 11.414062 -20.90625 13.207031 -20.332031 14.4375 -19.1875 C 15.675781 -18.050781 16.296875 -16.585938 16.296875 -14.796875 Z M 9.0625 -10.984375 C 10.582031 -10.984375 11.703125 -11.3125 12.421875 -11.96875 C 13.140625 -12.625 13.5 -13.566406 13.5 -14.796875 C 13.5 -17.367188 12.019531 -18.65625 9.0625 -18.65625 L 5.046875 -18.65625 L 5.046875 -10.984375 Z M 9.0625 -10.984375 "/></g></g></g><g fill="#3d52a0" fill-opacity="1"><g transform="translate(455.052682, 701.635456)"><g><path d="M 5.046875 -13.765625 C 5.523438 -14.710938 6.207031 -15.441406 7.09375 -15.953125 C 7.988281 -16.472656 9.070312 -16.734375 10.34375 -16.734375 L 10.34375 -13.921875 L 9.625 -13.921875 C 6.570312 -13.921875 5.046875 -12.257812 5.046875 -8.9375 L 5.046875 0 L 2.3125 0 L 2.3125 -16.4375 L 5.046875 -16.4375 Z M 5.046875 -13.765625 "/></g></g></g><g fill="#3d52a0" fill-opacity="1"><g transform="translate(466.242668, 701.635456)"><g><path d="M 17.3125 -8.84375 C 17.3125 -8.320312 17.28125 -7.773438 17.21875 -7.203125 L 4.078125 -7.203125 C 4.179688 -5.578125 4.738281 -4.3125 5.75 -3.40625 C 6.757812 -2.5 7.984375 -2.046875 9.421875 -2.046875 C 10.597656 -2.046875 11.582031 -2.316406 12.375 -2.859375 C 13.164062 -3.410156 13.722656 -4.144531 14.046875 -5.0625 L 16.984375 -5.0625 C 16.535156 -3.488281 15.648438 -2.207031 14.328125 -1.21875 C 13.015625 -0.226562 11.378906 0.265625 9.421875 0.265625 C 7.859375 0.265625 6.460938 -0.0820312 5.234375 -0.78125 C 4.003906 -1.476562 3.039062 -2.472656 2.34375 -3.765625 C 1.644531 -5.054688 1.296875 -6.550781 1.296875 -8.25 C 1.296875 -9.945312 1.632812 -11.4375 2.3125 -12.71875 C 2.988281 -14 3.941406 -14.984375 5.171875 -15.671875 C 6.398438 -16.359375 7.816406 -16.703125 9.421875 -16.703125 C 10.984375 -16.703125 12.363281 -16.363281 13.5625 -15.6875 C 14.757812 -15.007812 15.679688 -14.070312 16.328125 -12.875 C 16.984375 -11.6875 17.3125 -10.34375 17.3125 -8.84375 Z M 14.484375 -9.421875 C 14.484375 -10.460938 14.253906 -11.359375 13.796875 -12.109375 C 13.335938 -12.859375 12.710938 -13.425781 11.921875 -13.8125 C 11.128906 -14.207031 10.253906 -14.40625 9.296875 -14.40625 C 7.921875 -14.40625 6.742188 -13.960938 5.765625 -13.078125 C 4.796875 -12.203125 4.242188 -10.984375 4.109375 -9.421875 Z M 14.484375 -9.421875 "/></g></g></g><g fill="#3d52a0" fill-opacity="1"><g transform="translate(484.842646, 701.635456)"><g><path d="M 8.4375 -2.515625 L 13.53125 -16.4375 L 16.4375 -16.4375 L 9.984375 0 L 6.8125 0 L 0.359375 -16.4375 L 3.296875 -16.4375 Z M 8.4375 -2.515625 "/></g></g></g><g fill="#3d52a0" fill-opacity="1"><g transform="translate(501.672624, 701.635456)"><g><path d="M 3.71875 -19.109375 C 3.195312 -19.109375 2.753906 -19.285156 2.390625 -19.640625 C 2.035156 -20.003906 1.859375 -20.445312 1.859375 -20.96875 C 1.859375 -21.488281 2.035156 -21.925781 2.390625 -22.28125 C 2.753906 -22.644531 3.195312 -22.828125 3.71875 -22.828125 C 4.21875 -22.828125 4.640625 -22.644531 4.984375 -22.28125 C 5.335938 -21.925781 5.515625 -21.488281 5.515625 -20.96875 C 5.515625 -20.445312 5.335938 -20.003906 4.984375 -19.640625 C 4.640625 -19.285156 4.21875 -19.109375 3.71875 -19.109375 Z M 5.046875 -16.4375 L 5.046875 0 L 2.3125 0 L 2.3125 -16.4375 Z M 5.046875 -16.4375 "/></g></g></g><g fill="#3d52a0" fill-opacity="1"><g transform="translate(509.05262, 701.635456)"><g><path d="M 9.484375 0.265625 C 7.941406 0.265625 6.546875 -0.0820312 5.296875 -0.78125 C 4.046875 -1.476562 3.066406 -2.472656 2.359375 -3.765625 C 1.648438 -5.054688 1.296875 -6.550781 1.296875 -8.25 C 1.296875 -9.925781 1.660156 -11.410156 2.390625 -12.703125 C 3.117188 -13.992188 4.113281 -14.984375 5.375 -15.671875 C 6.632812 -16.359375 8.039062 -16.703125 9.59375 -16.703125 C 11.15625 -16.703125 12.566406 -16.359375 13.828125 -15.671875 C 15.085938 -14.984375 16.082031 -14 16.8125 -12.71875 C 17.539062 -11.4375 17.90625 -9.945312 17.90625 -8.25 C 17.90625 -6.550781 17.53125 -5.054688 16.78125 -3.765625 C 16.03125 -2.472656 15.015625 -1.476562 13.734375 -0.78125 C 12.453125 -0.0820312 11.035156 0.265625 9.484375 0.265625 Z M 9.484375 -2.125 C 10.460938 -2.125 11.378906 -2.351562 12.234375 -2.8125 C 13.097656 -3.28125 13.796875 -3.972656 14.328125 -4.890625 C 14.859375 -5.804688 15.125 -6.925781 15.125 -8.25 C 15.125 -9.570312 14.863281 -10.691406 14.34375 -11.609375 C 13.820312 -12.523438 13.140625 -13.207031 12.296875 -13.65625 C 11.460938 -14.113281 10.550781 -14.34375 9.5625 -14.34375 C 8.5625 -14.34375 7.644531 -14.113281 6.8125 -13.65625 C 5.988281 -13.207031 5.328125 -12.523438 4.828125 -11.609375 C 4.328125 -10.691406 4.078125 -9.570312 4.078125 -8.25 C 4.078125 -6.90625 4.320312 -5.773438 4.8125 -4.859375 C 5.300781 -3.941406 5.957031 -3.253906 6.78125 -2.796875 C 7.601562 -2.347656 8.503906 -2.125 9.484375 -2.125 Z M 9.484375 -2.125 "/></g></g></g><g fill="#3d52a0" fill-opacity="1"><g transform="translate(528.252601, 701.635456)"><g><path d="M 16.890625 -16.4375 L 16.890625 0 L 14.15625 0 L 14.15625 -2.4375 C 13.632812 -1.59375 12.910156 -0.9375 11.984375 -0.46875 C 11.054688 0 10.03125 0.234375 8.90625 0.234375 C 7.625 0.234375 6.472656 -0.0234375 5.453125 -0.546875 C 4.441406 -1.078125 3.640625 -1.875 3.046875 -2.9375 C 2.453125 -4 2.15625 -5.289062 2.15625 -6.8125 L 2.15625 -16.4375 L 4.859375 -16.4375 L 4.859375 -7.171875 C 4.859375 -5.546875 5.265625 -4.296875 6.078125 -3.421875 C 6.898438 -2.554688 8.023438 -2.125 9.453125 -2.125 C 10.910156 -2.125 12.054688 -2.570312 12.890625 -3.46875 C 13.734375 -4.375 14.15625 -5.6875 14.15625 -7.40625 L 14.15625 -16.4375 Z M 16.890625 -16.4375 "/></g></g></g><g fill="#3d52a0" fill-opacity="1"><g transform="translate(547.452581, 701.635456)"><g><path d="M 8.125 0.265625 C 6.863281 0.265625 5.734375 0.0507812 4.734375 -0.375 C 3.734375 -0.800781 2.941406 -1.398438 2.359375 -2.171875 C 1.785156 -2.941406 1.46875 -3.828125 1.40625 -4.828125 L 4.234375 -4.828125 C 4.304688 -4.003906 4.6875 -3.332031 5.375 -2.8125 C 6.070312 -2.300781 6.976562 -2.046875 8.09375 -2.046875 C 9.132812 -2.046875 9.953125 -2.273438 10.546875 -2.734375 C 11.148438 -3.191406 11.453125 -3.769531 11.453125 -4.46875 C 11.453125 -5.1875 11.132812 -5.71875 10.5 -6.0625 C 9.863281 -6.414062 8.875 -6.765625 7.53125 -7.109375 C 6.3125 -7.429688 5.316406 -7.753906 4.546875 -8.078125 C 3.773438 -8.410156 3.113281 -8.898438 2.5625 -9.546875 C 2.007812 -10.203125 1.734375 -11.0625 1.734375 -12.125 C 1.734375 -12.957031 1.984375 -13.722656 2.484375 -14.421875 C 2.984375 -15.128906 3.691406 -15.6875 4.609375 -16.09375 C 5.535156 -16.5 6.585938 -16.703125 7.765625 -16.703125 C 9.585938 -16.703125 11.054688 -16.242188 12.171875 -15.328125 C 13.296875 -14.410156 13.898438 -13.148438 13.984375 -11.546875 L 11.25 -11.546875 C 11.1875 -12.410156 10.835938 -13.101562 10.203125 -13.625 C 9.578125 -14.144531 8.738281 -14.40625 7.6875 -14.40625 C 6.695312 -14.40625 5.910156 -14.191406 5.328125 -13.765625 C 4.753906 -13.347656 4.46875 -12.800781 4.46875 -12.125 C 4.46875 -11.582031 4.640625 -11.132812 4.984375 -10.78125 C 5.335938 -10.4375 5.78125 -10.15625 6.3125 -9.9375 C 6.84375 -9.726562 7.578125 -9.492188 8.515625 -9.234375 C 9.703125 -8.921875 10.664062 -8.609375 11.40625 -8.296875 C 12.144531 -7.984375 12.773438 -7.515625 13.296875 -6.890625 C 13.828125 -6.273438 14.101562 -5.46875 14.125 -4.46875 C 14.125 -3.570312 13.875 -2.757812 13.375 -2.03125 C 12.875 -1.3125 12.171875 -0.75 11.265625 -0.34375 C 10.359375 0.0625 9.3125 0.265625 8.125 0.265625 Z M 8.125 0.265625 "/></g></g></g><g fill="#3d52a0" fill-opacity="1"><g transform="translate(563.11256, 701.635456)"><g/></g></g><g fill="#3d52a0" fill-opacity="1"><g transform="translate(571.122554, 701.635456)"><g><path d="M 23.515625 -20.765625 L 23.515625 0 L 20.796875 0 L 20.796875 -15.484375 L 13.890625 0 L 11.96875 0 L 5.046875 -15.515625 L 5.046875 0 L 2.3125 0 L 2.3125 -20.765625 L 5.25 -20.765625 L 12.9375 -3.59375 L 20.609375 -20.765625 Z M 23.515625 -20.765625 "/></g></g></g><g fill="#3d52a0" fill-opacity="1"><g transform="translate(596.952531, 701.635456)"><g><path d="M 9.484375 0.265625 C 7.941406 0.265625 6.546875 -0.0820312 5.296875 -0.78125 C 4.046875 -1.476562 3.066406 -2.472656 2.359375 -3.765625 C 1.648438 -5.054688 1.296875 -6.550781 1.296875 -8.25 C 1.296875 -9.925781 1.660156 -11.410156 2.390625 -12.703125 C 3.117188 -13.992188 4.113281 -14.984375 5.375 -15.671875 C 6.632812 -16.359375 8.039062 -16.703125 9.59375 -16.703125 C 11.15625 -16.703125 12.566406 -16.359375 13.828125 -15.671875 C 15.085938 -14.984375 16.082031 -14 16.8125 -12.71875 C 17.539062 -11.4375 17.90625 -9.945312 17.90625 -8.25 C 17.90625 -6.550781 17.53125 -5.054688 16.78125 -3.765625 C 16.03125 -2.472656 15.015625 -1.476562 13.734375 -0.78125 C 12.453125 -0.0820312 11.035156 0.265625 9.484375 0.265625 Z M 9.484375 -2.125 C 10.460938 -2.125 11.378906 -2.351562 12.234375 -2.8125 C 13.097656 -3.28125 13.796875 -3.972656 14.328125 -4.890625 C 14.859375 -5.804688 15.125 -6.925781 15.125 -8.25 C 15.125 -9.570312 14.863281 -10.691406 14.34375 -11.609375 C 13.820312 -12.523438 13.140625 -13.207031 12.296875 -13.65625 C 11.460938 -14.113281 10.550781 -14.34375 9.5625 -14.34375 C 8.5625 -14.34375 7.644531 -14.113281 6.8125 -13.65625 C 5.988281 -13.207031 5.328125 -12.523438 4.828125 -11.609375 C 4.328125 -10.691406 4.078125 -9.570312 4.078125 -8.25 C 4.078125 -6.90625 4.320312 -5.773438 4.8125 -4.859375 C 5.300781 -3.941406 5.957031 -3.253906 6.78125 -2.796875 C 7.601562 -2.347656 8.503906 -2.125 9.484375 -2.125 Z M 9.484375 -2.125 "/></g></g></g><g fill="#3d52a0" fill-opacity="1"><g transform="translate(616.152511, 701.635456)"><g><path d="M 10.3125 -16.734375 C 12.3125 -16.734375 13.929688 -16.128906 15.171875 -14.921875 C 16.421875 -13.710938 17.046875 -11.96875 17.046875 -9.6875 L 17.046875 0 L 14.34375 0 L 14.34375 -9.296875 C 14.34375 -10.941406 13.929688 -12.195312 13.109375 -13.0625 C 12.285156 -13.9375 11.164062 -14.375 9.75 -14.375 C 8.3125 -14.375 7.164062 -13.921875 6.3125 -13.015625 C 5.46875 -12.117188 5.046875 -10.8125 5.046875 -9.09375 L 5.046875 0 L 2.3125 0 L 2.3125 -16.4375 L 5.046875 -16.4375 L 5.046875 -14.09375 C 5.578125 -14.9375 6.304688 -15.585938 7.234375 -16.046875 C 8.171875 -16.503906 9.195312 -16.734375 10.3125 -16.734375 Z M 10.3125 -16.734375 "/></g></g></g><g fill="#3d52a0" fill-opacity="1"><g transform="translate(635.352503, 701.635456)"><g><path d="M 5.640625 -14.1875 L 5.640625 -4.5 C 5.640625 -3.695312 5.804688 -3.128906 6.140625 -2.796875 C 6.484375 -2.472656 7.078125 -2.3125 7.921875 -2.3125 L 9.9375 -2.3125 L 9.9375 0 L 7.46875 0 C 5.945312 0 4.804688 -0.347656 4.046875 -1.046875 C 3.285156 -1.742188 2.90625 -2.894531 2.90625 -4.5 L 2.90625 -14.1875 L 0.78125 -14.1875 L 0.78125 -16.4375 L 2.90625 -16.4375 L 2.90625 -20.578125 L 5.640625 -20.578125 L 5.640625 -16.4375 L 9.9375 -16.4375 L 9.9375 -14.1875 Z M 5.640625 -14.1875 "/></g></g></g><g fill="#3d52a0" fill-opacity="1"><g transform="translate(646.2725, 701.635456)"><g><path d="M 10.46875 -16.734375 C 11.707031 -16.734375 12.828125 -16.46875 13.828125 -15.9375 C 14.828125 -15.414062 15.613281 -14.625 16.1875 -13.5625 C 16.757812 -12.5 17.046875 -11.207031 17.046875 -9.6875 L 17.046875 0 L 14.34375 0 L 14.34375 -9.296875 C 14.34375 -10.941406 13.929688 -12.195312 13.109375 -13.0625 C 12.285156 -13.9375 11.164062 -14.375 9.75 -14.375 C 8.3125 -14.375 7.164062 -13.921875 6.3125 -13.015625 C 5.46875 -12.117188 5.046875 -10.8125 5.046875 -9.09375 L 5.046875 0 L 2.3125 0 L 2.3125 -22.203125 L 5.046875 -22.203125 L 5.046875 -14.09375 C 5.578125 -14.9375 6.316406 -15.585938 7.265625 -16.046875 C 8.222656 -16.503906 9.289062 -16.734375 10.46875 -16.734375 Z M 10.46875 -16.734375 "/></g></g></g><g fill="#3d52a0" fill-opacity="1"><g transform="translate(443.835047, 877.938888)"><g><path d="M 15.1875 -20.90625 L 15.1875 -18.6875 L 9.484375 -18.6875 L 9.484375 0 L 6.75 0 L 6.75 -18.6875 L 1.015625 -18.6875 L 1.015625 -20.90625 Z M 15.1875 -20.90625 "/></g></g></g><g fill="#3d52a0" fill-opacity="1"><g transform="translate(460.065033, 877.938888)"><g><path d="M 10.46875 -16.734375 C 11.707031 -16.734375 12.828125 -16.46875 13.828125 -15.9375 C 14.828125 -15.414062 15.613281 -14.625 16.1875 -13.5625 C 16.757812 -12.5 17.046875 -11.207031 17.046875 -9.6875 L 17.046875 0 L 14.34375 0 L 14.34375 -9.296875 C 14.34375 -10.941406 13.929688 -12.195312 13.109375 -13.0625 C 12.285156 -13.9375 11.164062 -14.375 9.75 -14.375 C 8.3125 -14.375 7.164062 -13.921875 6.3125 -13.015625 C 5.46875 -12.117188 5.046875 -10.8125 5.046875 -9.09375 L 5.046875 0 L 2.3125 0 L 2.3125 -22.203125 L 5.046875 -22.203125 L 5.046875 -14.09375 C 5.578125 -14.9375 6.316406 -15.585938 7.265625 -16.046875 C 8.222656 -16.503906 9.289062 -16.734375 10.46875 -16.734375 Z M 10.46875 -16.734375 "/></g></g></g><g fill="#3d52a0" fill-opacity="1"><g transform="translate(479.265014, 877.938888)"><g><path d="M 3.71875 -19.109375 C 3.195312 -19.109375 2.753906 -19.285156 2.390625 -19.640625 C 2.035156 -20.003906 1.859375 -20.445312 1.859375 -20.96875 C 1.859375 -21.488281 2.035156 -21.925781 2.390625 -22.28125 C 2.753906 -22.644531 3.195312 -22.828125 3.71875 -22.828125 C 4.21875 -22.828125 4.640625 -22.644531 4.984375 -22.28125 C 5.335938 -21.925781 5.515625 -21.488281 5.515625 -20.96875 C 5.515625 -20.445312 5.335938 -20.003906 4.984375 -19.640625 C 4.640625 -19.285156 4.21875 -19.109375 3.71875 -19.109375 Z M 5.046875 -16.4375 L 5.046875 0 L 2.3125 0 L 2.3125 -16.4375 Z M 5.046875 -16.4375 "/></g></g></g><g fill="#3d52a0" fill-opacity="1"><g transform="translate(486.64501, 877.938888)"><g><path d="M 8.125 0.265625 C 6.863281 0.265625 5.734375 0.0507812 4.734375 -0.375 C 3.734375 -0.800781 2.941406 -1.398438 2.359375 -2.171875 C 1.785156 -2.941406 1.46875 -3.828125 1.40625 -4.828125 L 4.234375 -4.828125 C 4.304688 -4.003906 4.6875 -3.332031 5.375 -2.8125 C 6.070312 -2.300781 6.976562 -2.046875 8.09375 -2.046875 C 9.132812 -2.046875 9.953125 -2.273438 10.546875 -2.734375 C 11.148438 -3.191406 11.453125 -3.769531 11.453125 -4.46875 C 11.453125 -5.1875 11.132812 -5.71875 10.5 -6.0625 C 9.863281 -6.414062 8.875 -6.765625 7.53125 -7.109375 C 6.3125 -7.429688 5.316406 -7.753906 4.546875 -8.078125 C 3.773438 -8.410156 3.113281 -8.898438 2.5625 -9.546875 C 2.007812 -10.203125 1.734375 -11.0625 1.734375 -12.125 C 1.734375 -12.957031 1.984375 -13.722656 2.484375 -14.421875 C 2.984375 -15.128906 3.691406 -15.6875 4.609375 -16.09375 C 5.535156 -16.5 6.585938 -16.703125 7.765625 -16.703125 C 9.585938 -16.703125 11.054688 -16.242188 12.171875 -15.328125 C 13.296875 -14.410156 13.898438 -13.148438 13.984375 -11.546875 L 11.25 -11.546875 C 11.1875 -12.410156 10.835938 -13.101562 10.203125 -13.625 C 9.578125 -14.144531 8.738281 -14.40625 7.6875 -14.40625 C 6.695312 -14.40625 5.910156 -14.191406 5.328125 -13.765625 C 4.753906 -13.347656 4.46875 -12.800781 4.46875 -12.125 C 4.46875 -11.582031 4.640625 -11.132812 4.984375 -10.78125 C 5.335938 -10.4375 5.78125 -10.15625 6.3125 -9.9375 C 6.84375 -9.726562 7.578125 -9.492188 8.515625 -9.234375 C 9.703125 -8.921875 10.664062 -8.609375 11.40625 -8.296875 C 12.144531 -7.984375 12.773438 -7.515625 13.296875 -6.890625 C 13.828125 -6.273438 14.101562 -5.46875 14.125 -4.46875 C 14.125 -3.570312 13.875 -2.757812 13.375 -2.03125 C 12.875 -1.3125 12.171875 -0.75 11.265625 -0.34375 C 10.359375 0.0625 9.3125 0.265625 8.125 0.265625 Z M 8.125 0.265625 "/></g></g></g><g fill="#3d52a0" fill-opacity="1"><g transform="translate(502.30499, 877.938888)"><g/></g></g><g fill="#3d52a0" fill-opacity="1"><g transform="translate(510.314983, 877.938888)"><g><path d="M 23.515625 -20.765625 L 23.515625 0 L 20.796875 0 L 20.796875 -15.484375 L 13.890625 0 L 11.96875 0 L 5.046875 -15.515625 L 5.046875 0 L 2.3125 0 L 2.3125 -20.765625 L 5.25 -20.765625 L 12.9375 -3.59375 L 20.609375 -20.765625 Z M 23.515625 -20.765625 "/></g></g></g><g fill="#3d52a0" fill-opacity="1"><g transform="translate(536.14496, 877.938888)"><g><path d="M 9.484375 0.265625 C 7.941406 0.265625 6.546875 -0.0820312 5.296875 -0.78125 C 4.046875 -1.476562 3.066406 -2.472656 2.359375 -3.765625 C 1.648438 -5.054688 1.296875 -6.550781 1.296875 -8.25 C 1.296875 -9.925781 1.660156 -11.410156 2.390625 -12.703125 C 3.117188 -13.992188 4.113281 -14.984375 5.375 -15.671875 C 6.632812 -16.359375 8.039062 -16.703125 9.59375 -16.703125 C 11.15625 -16.703125 12.566406 -16.359375 13.828125 -15.671875 C 15.085938 -14.984375 16.082031 -14 16.8125 -12.71875 C 17.539062 -11.4375 17.90625 -9.945312 17.90625 -8.25 C 17.90625 -6.550781 17.53125 -5.054688 16.78125 -3.765625 C 16.03125 -2.472656 15.015625 -1.476562 13.734375 -0.78125 C 12.453125 -0.0820312 11.035156 0.265625 9.484375 0.265625 Z M 9.484375 -2.125 C 10.460938 -2.125 11.378906 -2.351562 12.234375 -2.8125 C 13.097656 -3.28125 13.796875 -3.972656 14.328125 -4.890625 C 14.859375 -5.804688 15.125 -6.925781 15.125 -8.25 C 15.125 -9.570312 14.863281 -10.691406 14.34375 -11.609375 C 13.820312 -12.523438 13.140625 -13.207031 12.296875 -13.65625 C 11.460938 -14.113281 10.550781 -14.34375 9.5625 -14.34375 C 8.5625 -14.34375 7.644531 -14.113281 6.8125 -13.65625 C 5.988281 -13.207031 5.328125 -12.523438 4.828125 -11.609375 C 4.328125 -10.691406 4.078125 -9.570312 4.078125 -8.25 C 4.078125 -6.90625 4.320312 -5.773438 4.8125 -4.859375 C 5.300781 -3.941406 5.957031 -3.253906 6.78125 -2.796875 C 7.601562 -2.347656 8.503906 -2.125 9.484375 -2.125 Z M 9.484375 -2.125 "/></g></g></g><g fill="#3d52a0" fill-opacity="1"><g transform="translate(555.344941, 877.938888)"><g><path d="M 10.3125 -16.734375 C 12.3125 -16.734375 13.929688 -16.128906 15.171875 -14.921875 C 16.421875 -13.710938 17.046875 -11.96875 17.046875 -9.6875 L 17.046875 0 L 14.34375 0 L 14.34375 -9.296875 C 14.34375 -10.941406 13.929688 -12.195312 13.109375 -13.0625 C 12.285156 -13.9375 11.164062 -14.375 9.75 -14.375 C 8.3125 -14.375 7.164062 -13.921875 6.3125 -13.015625 C 5.46875 -12.117188 5.046875 -10.8125 5.046875 -9.09375 L 5.046875 0 L 2.3125 0 L 2.3125 -16.4375 L 5.046875 -16.4375 L 5.046875 -14.09375 C 5.578125 -14.9375 6.304688 -15.585938 7.234375 -16.046875 C 8.171875 -16.503906 9.195312 -16.734375 10.3125 -16.734375 Z M 10.3125 -16.734375 "/></g></g></g><g fill="#3d52a0" fill-opacity="1"><g transform="translate(574.544921, 877.938888)"><g><path d="M 5.640625 -14.1875 L 5.640625 -4.5 C 5.640625 -3.695312 5.804688 -3.128906 6.140625 -2.796875 C 6.484375 -2.472656 7.078125 -2.3125 7.921875 -2.3125 L 9.9375 -2.3125 L 9.9375 0 L 7.46875 0 C 5.945312 0 4.804688 -0.347656 4.046875 -1.046875 C 3.285156 -1.742188 2.90625 -2.894531 2.90625 -4.5 L 2.90625 -14.1875 L 0.78125 -14.1875 L 0.78125 -16.4375 L 2.90625 -16.4375 L 2.90625 -20.578125 L 5.640625 -20.578125 L 5.640625 -16.4375 L 9.9375 -16.4375 L 9.9375 -14.1875 Z M 5.640625 -14.1875 "/></g></g></g><g fill="#3d52a0" fill-opacity="1"><g transform="translate(585.464907, 877.938888)"><g><path d="M 10.46875 -16.734375 C 11.707031 -16.734375 12.828125 -16.46875 13.828125 -15.9375 C 14.828125 -15.414062 15.613281 -14.625 16.1875 -13.5625 C 16.757812 -12.5 17.046875 -11.207031 17.046875 -9.6875 L 17.046875 0 L 14.34375 0 L 14.34375 -9.296875 C 14.34375 -10.941406 13.929688 -12.195312 13.109375 -13.0625 C 12.285156 -13.9375 11.164062 -14.375 9.75 -14.375 C 8.3125 -14.375 7.164062 -13.921875 6.3125 -13.015625 C 5.46875 -12.117188 5.046875 -10.8125 5.046875 -9.09375 L 5.046875 0 L 2.3125 0 L 2.3125 -22.203125 L 5.046875 -22.203125 L 5.046875 -14.09375 C 5.578125 -14.9375 6.316406 -15.585938 7.265625 -16.046875 C 8.222656 -16.503906 9.289062 -16.734375 10.46875 -16.734375 Z M 10.46875 -16.734375 "/></g></g></g><g clip-path="url(#b33d55f594)"><g clip-path="url(#eb7a83846c)"><path fill="#3d52a0" d="M 419.503906 723.441406 L 667.597656 723.441406 L 667.597656 746.46875 L 419.503906 746.46875 Z M 419.503906 723.441406 " fill-opacity="1" fill-rule="nonzero"/></g></g></svg>