<svg xmlns="http://www.w3.org/2000/svg" xmlns:xlink="http://www.w3.org/1999/xlink" width="320" zoomAndPan="magnify" viewBox="0 0 240 239.999995" height="320" preserveAspectRatio="xMidYMid meet" version="1.0"><defs><g/><clipPath id="2b347d838a"><path d="M 19.472656 97.804688 L 217.824219 97.804688 L 217.824219 134.554688 L 19.472656 134.554688 Z M 19.472656 97.804688 " clip-rule="nonzero"/></clipPath><clipPath id="7afe9dd5f3"><path d="M 42.269531 127.40625 L 197.730469 127.40625 L 197.730469 142.195312 L 42.269531 142.195312 Z M 42.269531 127.40625 " clip-rule="nonzero"/></clipPath></defs><g clip-path="url(#2b347d838a)"><path stroke-linecap="butt" transform="matrix(0.75, 0, 0, 0.75, 19.471922, 97.805231)" fill="none" stroke-linejoin="miter" d="M 0.000978829 -0.000724087 L 264.469746 -0.000724087 L 264.469746 49.311779 L 0.000978829 49.311779 Z M 0.000978829 -0.000724087 " stroke="#3d52a0" stroke-width="4" stroke-opacity="1" stroke-miterlimit="4"/></g><g fill="#3d52a0" fill-opacity="1"><g transform="translate(28.423827, 122.30537)"><g><path d="M 6.140625 -6.203125 L 10.390625 -10.9375 L 11.078125 -10.9375 L 11.078125 0 L 8.890625 0 L 8.90625 -6.015625 L 6.140625 -3.125 L 3.390625 -6.015625 L 3.390625 0 L 1.203125 0 L 1.203125 -10.9375 L 1.890625 -10.9375 Z M 6.140625 -6.203125 "/></g></g></g><g fill="#3d52a0" fill-opacity="1"><g transform="translate(41.990809, 122.30537)"><g><path d="M 8.9375 -3.75 C 8.9375 -3.019531 8.796875 -2.390625 8.515625 -1.859375 C 8.234375 -1.335938 7.859375 -0.921875 7.390625 -0.609375 C 6.929688 -0.304688 6.425781 -0.101562 5.875 0 C 5.320312 0.113281 4.765625 0.113281 4.203125 0 C 3.648438 -0.101562 3.140625 -0.304688 2.671875 -0.609375 C 2.210938 -0.921875 1.84375 -1.335938 1.5625 -1.859375 C 1.28125 -2.390625 1.140625 -3.019531 1.140625 -3.75 L 1.140625 -10.765625 L 3.296875 -10.765625 L 3.296875 -3.765625 C 3.296875 -3.316406 3.410156 -2.957031 3.640625 -2.6875 C 3.878906 -2.414062 4.171875 -2.234375 4.515625 -2.140625 C 4.867188 -2.046875 5.21875 -2.046875 5.5625 -2.140625 C 5.90625 -2.234375 6.195312 -2.414062 6.4375 -2.6875 C 6.675781 -2.957031 6.796875 -3.316406 6.796875 -3.765625 L 6.796875 -10.765625 L 8.9375 -10.765625 Z M 8.9375 -3.75 "/></g></g></g><g fill="#3d52a0" fill-opacity="1"><g transform="translate(53.374486, 122.30537)"><g><path d="M 3.359375 -5.859375 L 3.359375 0 L 1.203125 0 L 1.203125 -11 L 1.78125 -11 L 7.21875 -4.671875 L 7.21875 -10.75 L 9.390625 -10.75 L 9.390625 0.21875 L 8.8125 0.21875 Z M 3.359375 -5.859375 "/></g></g></g><g fill="#3d52a0" fill-opacity="1"><g transform="translate(65.255053, 122.30537)"><g><path d="M 6.78125 0 L 1.203125 0 L 1.203125 -10.765625 L 6.59375 -10.765625 L 6.59375 -8.609375 L 3.359375 -8.609375 L 3.359375 -6.46875 L 6.1875 -6.46875 L 6.1875 -4.3125 L 3.359375 -4.3125 L 3.359375 -2.15625 L 6.78125 -2.15625 Z M 6.78125 0 "/></g></g></g><g fill="#3d52a0" fill-opacity="1"><g transform="translate(74.124169, 122.30537)"><g><path d="M 6.78125 0 L 1.203125 0 L 1.203125 -10.765625 L 6.59375 -10.765625 L 6.59375 -8.609375 L 3.359375 -8.609375 L 3.359375 -6.46875 L 6.1875 -6.46875 L 6.1875 -4.3125 L 3.359375 -4.3125 L 3.359375 -2.15625 L 6.78125 -2.15625 Z M 6.78125 0 "/></g></g></g><g fill="#3d52a0" fill-opacity="1"><g transform="translate(82.993288, 122.30537)"><g><path d="M 6.140625 -6.203125 L 10.390625 -10.9375 L 11.078125 -10.9375 L 11.078125 0 L 8.890625 0 L 8.90625 -6.015625 L 6.140625 -3.125 L 3.390625 -6.015625 L 3.390625 0 L 1.203125 0 L 1.203125 -10.9375 L 1.890625 -10.9375 Z M 6.140625 -6.203125 "/></g></g></g><g fill="#3d52a0" fill-opacity="1"><g transform="translate(96.560274, 122.30537)"><g><path d="M 0.484375 0 L 0.484375 -2.15625 L 2.546875 -2.15625 C 2.859375 -2.15625 3.117188 -2.257812 3.328125 -2.46875 C 3.535156 -2.675781 3.640625 -2.929688 3.640625 -3.234375 L 3.640625 -10.765625 L 5.78125 -10.765625 L 5.78125 -3.234375 C 5.78125 -2.640625 5.632812 -2.097656 5.34375 -1.609375 C 5.0625 -1.117188 4.679688 -0.726562 4.203125 -0.4375 C 3.734375 -0.144531 3.203125 0 2.609375 0 Z M 0.484375 0 "/></g></g></g><g fill="#3d52a0" fill-opacity="1"><g transform="translate(104.842154, 122.30537)"><g><path d="M 3.359375 0 L 1.203125 0 L 1.203125 -10.765625 L 3.359375 -10.765625 Z M 3.359375 0 "/></g></g></g><g fill="#3d52a0" fill-opacity="1"><g transform="translate(110.699827, 122.30537)"><g/></g></g><g fill="#3d52a0" fill-opacity="1"><g transform="translate(116.256345, 122.30537)"><g><path d="M 0.703125 -0.6875 L 0.984375 -2.953125 C 1.390625 -2.660156 1.796875 -2.453125 2.203125 -2.328125 C 2.609375 -2.203125 2.976562 -2.128906 3.3125 -2.109375 C 3.644531 -2.085938 3.890625 -2.082031 4.046875 -2.09375 C 4.367188 -2.113281 4.644531 -2.222656 4.875 -2.421875 C 5.101562 -2.628906 5.203125 -2.878906 5.171875 -3.171875 C 5.148438 -3.484375 5.03125 -3.71875 4.8125 -3.875 C 4.601562 -4.039062 4.347656 -4.175781 4.046875 -4.28125 C 3.484375 -4.488281 2.957031 -4.726562 2.46875 -5 C 1.988281 -5.28125 1.597656 -5.625 1.296875 -6.03125 C 1.003906 -6.445312 0.859375 -6.957031 0.859375 -7.5625 C 0.859375 -8.164062 0.984375 -8.707031 1.234375 -9.1875 C 1.492188 -9.675781 1.851562 -10.066406 2.3125 -10.359375 C 2.78125 -10.648438 3.3125 -10.8125 3.90625 -10.84375 C 4.1875 -10.863281 4.53125 -10.851562 4.9375 -10.8125 C 5.34375 -10.769531 5.890625 -10.628906 6.578125 -10.390625 L 6.3125 -8.3125 C 5.71875 -8.550781 5.242188 -8.6875 4.890625 -8.71875 C 4.546875 -8.757812 4.285156 -8.773438 4.109375 -8.765625 C 3.734375 -8.742188 3.457031 -8.613281 3.28125 -8.375 C 3.101562 -8.132812 3.023438 -7.863281 3.046875 -7.5625 C 3.078125 -7.257812 3.207031 -7.03125 3.4375 -6.875 C 3.664062 -6.71875 3.9375 -6.585938 4.25 -6.484375 C 4.8125 -6.273438 5.328125 -6.019531 5.796875 -5.71875 C 6.265625 -5.425781 6.640625 -5.070312 6.921875 -4.65625 C 7.210938 -4.238281 7.359375 -3.742188 7.359375 -3.171875 C 7.359375 -2.585938 7.226562 -2.050781 6.96875 -1.5625 C 6.707031 -1.082031 6.332031 -0.695312 5.84375 -0.40625 C 5.363281 -0.113281 4.785156 0.0507812 4.109375 0.09375 C 3.910156 0.101562 3.632812 0.09375 3.28125 0.0625 C 2.9375 0.0390625 2.546875 -0.0234375 2.109375 -0.140625 C 1.671875 -0.253906 1.203125 -0.4375 0.703125 -0.6875 Z M 0.703125 -0.6875 "/></g></g></g><g fill="#3d52a0" fill-opacity="1"><g transform="translate(125.501888, 122.30537)"><g><path d="M 6.390625 0.15625 C 5.460938 0.15625 4.648438 0 3.953125 -0.3125 C 3.253906 -0.625 2.671875 -1.039062 2.203125 -1.5625 C 1.742188 -2.09375 1.398438 -2.691406 1.171875 -3.359375 C 0.941406 -4.023438 0.828125 -4.707031 0.828125 -5.40625 C 0.828125 -6.101562 0.941406 -6.78125 1.171875 -7.4375 C 1.398438 -8.101562 1.742188 -8.695312 2.203125 -9.21875 C 2.671875 -9.75 3.253906 -10.171875 3.953125 -10.484375 C 4.648438 -10.796875 5.460938 -10.953125 6.390625 -10.953125 C 7.304688 -10.953125 8.113281 -10.796875 8.8125 -10.484375 C 9.507812 -10.171875 10.085938 -9.75 10.546875 -9.21875 C 11.015625 -8.695312 11.363281 -8.101562 11.59375 -7.4375 C 11.820312 -6.78125 11.9375 -6.101562 11.9375 -5.40625 C 11.9375 -4.707031 11.820312 -4.023438 11.59375 -3.359375 C 11.363281 -2.691406 11.015625 -2.09375 10.546875 -1.5625 C 10.085938 -1.039062 9.507812 -0.625 8.8125 -0.3125 C 8.113281 0 7.304688 0.15625 6.390625 0.15625 Z M 6.390625 -2.078125 C 7.003906 -2.078125 7.53125 -2.195312 7.96875 -2.4375 C 8.40625 -2.675781 8.753906 -2.992188 9.015625 -3.390625 C 9.285156 -3.785156 9.460938 -4.21875 9.546875 -4.6875 C 9.640625 -5.164062 9.640625 -5.640625 9.546875 -6.109375 C 9.460938 -6.585938 9.285156 -7.023438 9.015625 -7.421875 C 8.753906 -7.816406 8.40625 -8.132812 7.96875 -8.375 C 7.53125 -8.613281 7.003906 -8.734375 6.390625 -8.734375 C 5.773438 -8.734375 5.242188 -8.613281 4.796875 -8.375 C 4.359375 -8.132812 4.007812 -7.816406 3.75 -7.421875 C 3.488281 -7.023438 3.3125 -6.585938 3.21875 -6.109375 C 3.132812 -5.640625 3.132812 -5.164062 3.21875 -4.6875 C 3.3125 -4.21875 3.488281 -3.785156 3.75 -3.390625 C 4.007812 -2.992188 4.359375 -2.675781 4.796875 -2.4375 C 5.242188 -2.195312 5.773438 -2.078125 6.390625 -2.078125 Z M 6.390625 -2.078125 "/></g></g></g><g fill="#3d52a0" fill-opacity="1"><g transform="translate(139.535647, 122.30537)"><g><path d="M 1.203125 -10.765625 L 3.359375 -10.765625 L 3.359375 -2.15625 L 6.78125 -2.15625 L 6.78125 0 L 1.203125 0 Z M 1.203125 -10.765625 "/></g></g></g><g fill="#3d52a0" fill-opacity="1"><g transform="translate(148.239129, 122.30537)"><g><path d="M 8.9375 -3.75 C 8.9375 -3.019531 8.796875 -2.390625 8.515625 -1.859375 C 8.234375 -1.335938 7.859375 -0.921875 7.390625 -0.609375 C 6.929688 -0.304688 6.425781 -0.101562 5.875 0 C 5.320312 0.113281 4.765625 0.113281 4.203125 0 C 3.648438 -0.101562 3.140625 -0.304688 2.671875 -0.609375 C 2.210938 -0.921875 1.84375 -1.335938 1.5625 -1.859375 C 1.28125 -2.390625 1.140625 -3.019531 1.140625 -3.75 L 1.140625 -10.765625 L 3.296875 -10.765625 L 3.296875 -3.765625 C 3.296875 -3.316406 3.410156 -2.957031 3.640625 -2.6875 C 3.878906 -2.414062 4.171875 -2.234375 4.515625 -2.140625 C 4.867188 -2.046875 5.21875 -2.046875 5.5625 -2.140625 C 5.90625 -2.234375 6.195312 -2.414062 6.4375 -2.6875 C 6.675781 -2.957031 6.796875 -3.316406 6.796875 -3.765625 L 6.796875 -10.765625 L 8.9375 -10.765625 Z M 8.9375 -3.75 "/></g></g></g><g fill="#3d52a0" fill-opacity="1"><g transform="translate(159.622802, 122.30537)"><g><path d="M 5.140625 0 L 2.984375 0 L 2.984375 -8.609375 L 0.296875 -8.609375 L 0.296875 -10.75 L 7.8125 -10.75 L 7.8125 -8.609375 L 5.140625 -8.609375 Z M 5.140625 0 "/></g></g></g><g fill="#3d52a0" fill-opacity="1"><g transform="translate(169.139384, 122.30537)"><g><path d="M 3.359375 0 L 1.203125 0 L 1.203125 -10.765625 L 3.359375 -10.765625 Z M 3.359375 0 "/></g></g></g><g fill="#3d52a0" fill-opacity="1"><g transform="translate(174.997057, 122.30537)"><g><path d="M 6.390625 0.15625 C 5.460938 0.15625 4.648438 0 3.953125 -0.3125 C 3.253906 -0.625 2.671875 -1.039062 2.203125 -1.5625 C 1.742188 -2.09375 1.398438 -2.691406 1.171875 -3.359375 C 0.941406 -4.023438 0.828125 -4.707031 0.828125 -5.40625 C 0.828125 -6.101562 0.941406 -6.78125 1.171875 -7.4375 C 1.398438 -8.101562 1.742188 -8.695312 2.203125 -9.21875 C 2.671875 -9.75 3.253906 -10.171875 3.953125 -10.484375 C 4.648438 -10.796875 5.460938 -10.953125 6.390625 -10.953125 C 7.304688 -10.953125 8.113281 -10.796875 8.8125 -10.484375 C 9.507812 -10.171875 10.085938 -9.75 10.546875 -9.21875 C 11.015625 -8.695312 11.363281 -8.101562 11.59375 -7.4375 C 11.820312 -6.78125 11.9375 -6.101562 11.9375 -5.40625 C 11.9375 -4.707031 11.820312 -4.023438 11.59375 -3.359375 C 11.363281 -2.691406 11.015625 -2.09375 10.546875 -1.5625 C 10.085938 -1.039062 9.507812 -0.625 8.8125 -0.3125 C 8.113281 0 7.304688 0.15625 6.390625 0.15625 Z M 6.390625 -2.078125 C 7.003906 -2.078125 7.53125 -2.195312 7.96875 -2.4375 C 8.40625 -2.675781 8.753906 -2.992188 9.015625 -3.390625 C 9.285156 -3.785156 9.460938 -4.21875 9.546875 -4.6875 C 9.640625 -5.164062 9.640625 -5.640625 9.546875 -6.109375 C 9.460938 -6.585938 9.285156 -7.023438 9.015625 -7.421875 C 8.753906 -7.816406 8.40625 -8.132812 7.96875 -8.375 C 7.53125 -8.613281 7.003906 -8.734375 6.390625 -8.734375 C 5.773438 -8.734375 5.242188 -8.613281 4.796875 -8.375 C 4.359375 -8.132812 4.007812 -7.816406 3.75 -7.421875 C 3.488281 -7.023438 3.3125 -6.585938 3.21875 -6.109375 C 3.132812 -5.640625 3.132812 -5.164062 3.21875 -4.6875 C 3.3125 -4.21875 3.488281 -3.785156 3.75 -3.390625 C 4.007812 -2.992188 4.359375 -2.675781 4.796875 -2.4375 C 5.242188 -2.195312 5.773438 -2.078125 6.390625 -2.078125 Z M 6.390625 -2.078125 "/></g></g></g><g fill="#3d52a0" fill-opacity="1"><g transform="translate(189.030816, 122.30537)"><g><path d="M 3.359375 -5.859375 L 3.359375 0 L 1.203125 0 L 1.203125 -11 L 1.78125 -11 L 7.21875 -4.671875 L 7.21875 -10.75 L 9.390625 -10.75 L 9.390625 0.21875 L 8.8125 0.21875 Z M 3.359375 -5.859375 "/></g></g></g><g fill="#3d52a0" fill-opacity="1"><g transform="translate(200.91138, 122.30537)"><g><path d="M 0.703125 -0.6875 L 0.984375 -2.953125 C 1.390625 -2.660156 1.796875 -2.453125 2.203125 -2.328125 C 2.609375 -2.203125 2.976562 -2.128906 3.3125 -2.109375 C 3.644531 -2.085938 3.890625 -2.082031 4.046875 -2.09375 C 4.367188 -2.113281 4.644531 -2.222656 4.875 -2.421875 C 5.101562 -2.628906 5.203125 -2.878906 5.171875 -3.171875 C 5.148438 -3.484375 5.03125 -3.71875 4.8125 -3.875 C 4.601562 -4.039062 4.347656 -4.175781 4.046875 -4.28125 C 3.484375 -4.488281 2.957031 -4.726562 2.46875 -5 C 1.988281 -5.28125 1.597656 -5.625 1.296875 -6.03125 C 1.003906 -6.445312 0.859375 -6.957031 0.859375 -7.5625 C 0.859375 -8.164062 0.984375 -8.707031 1.234375 -9.1875 C 1.492188 -9.675781 1.851562 -10.066406 2.3125 -10.359375 C 2.78125 -10.648438 3.3125 -10.8125 3.90625 -10.84375 C 4.1875 -10.863281 4.53125 -10.851562 4.9375 -10.8125 C 5.34375 -10.769531 5.890625 -10.628906 6.578125 -10.390625 L 6.3125 -8.3125 C 5.71875 -8.550781 5.242188 -8.6875 4.890625 -8.71875 C 4.546875 -8.757812 4.285156 -8.773438 4.109375 -8.765625 C 3.734375 -8.742188 3.457031 -8.613281 3.28125 -8.375 C 3.101562 -8.132812 3.023438 -7.863281 3.046875 -7.5625 C 3.078125 -7.257812 3.207031 -7.03125 3.4375 -6.875 C 3.664062 -6.71875 3.9375 -6.585938 4.25 -6.484375 C 4.8125 -6.273438 5.328125 -6.019531 5.796875 -5.71875 C 6.265625 -5.425781 6.640625 -5.070312 6.921875 -4.65625 C 7.210938 -4.238281 7.359375 -3.742188 7.359375 -3.171875 C 7.359375 -2.585938 7.226562 -2.050781 6.96875 -1.5625 C 6.707031 -1.082031 6.332031 -0.695312 5.84375 -0.40625 C 5.363281 -0.113281 4.785156 0.0507812 4.109375 0.09375 C 3.910156 0.101562 3.632812 0.09375 3.28125 0.0625 C 2.9375 0.0390625 2.546875 -0.0234375 2.109375 -0.140625 C 1.671875 -0.253906 1.203125 -0.4375 0.703125 -0.6875 Z M 0.703125 -0.6875 "/></g></g></g><g clip-path="url(#7afe9dd5f3)"><path fill="#3d52a0" d="M 42.269531 127.40625 L 197.71875 127.40625 L 197.71875 142.195312 L 42.269531 142.195312 Z M 42.269531 127.40625 " fill-opacity="1" fill-rule="nonzero"/></g><g fill="#ede8f5" fill-opacity="1"><g transform="translate(57.957869, 136.588189)"><g><path d="M 4.59375 0 L 3.609375 0 L 2.921875 -2.59375 L 2.203125 0 L 1.21875 0 L 0 -3.75 L 1.015625 -3.75 L 1.75 -0.984375 L 2.46875 -3.75 L 3.390625 -3.75 L 4.125 -0.984375 L 4.859375 -3.75 L 5.828125 -3.75 Z M 4.59375 0 "/></g></g></g><g fill="#ede8f5" fill-opacity="1"><g transform="translate(63.95348, 136.588189)"><g><path d="M 1.328125 0 L 0.375 0 L 0.375 -3.75 L 1.328125 -3.75 Z M 1.328125 0 "/></g></g></g><g fill="#ede8f5" fill-opacity="1"><g transform="translate(65.857273, 136.588189)"><g><path d="M 1.328125 -0.796875 L 2.921875 -0.796875 L 2.921875 0 L 0.375 0 L 0.375 -3.75 L 1.328125 -3.75 Z M 1.328125 -0.796875 "/></g></g></g><g fill="#ede8f5" fill-opacity="1"><g transform="translate(69.058864, 136.588189)"><g><path d="M 1.328125 -0.796875 L 2.921875 -0.796875 L 2.921875 0 L 0.375 0 L 0.375 -3.75 L 1.328125 -3.75 Z M 1.328125 -0.796875 "/></g></g></g><g fill="#ede8f5" fill-opacity="1"><g transform="translate(72.260455, 136.588189)"><g/></g></g><g fill="#ede8f5" fill-opacity="1"><g transform="translate(73.703051, 136.588189)"><g><path d="M 3.25 -2.984375 L 2.109375 -2.984375 L 2.109375 0 L 1.15625 0 L 1.15625 -2.984375 L 0.03125 -2.984375 L 0.03125 -3.75 L 3.25 -3.75 Z M 3.25 -2.984375 "/></g></g></g><g fill="#ede8f5" fill-opacity="1"><g transform="translate(77.178143, 136.588189)"><g><path d="M 2.875 -0.6875 L 1.234375 -0.6875 L 0.953125 0 L -0.03125 0 L 1.59375 -3.75 L 2.578125 -3.75 L 4.15625 0 L 3.140625 0 Z M 2.59375 -1.421875 L 2.046875 -2.796875 L 1.5 -1.421875 Z M 2.59375 -1.421875 "/></g></g></g><g fill="#ede8f5" fill-opacity="1"><g transform="translate(81.505924, 136.588189)"><g><path d="M 2.8125 0 L 1.828125 -1.46875 L 1.328125 -0.921875 L 1.328125 0 L 0.375 0 L 0.375 -3.75 L 1.328125 -3.75 L 1.328125 -2.125 L 2.765625 -3.75 L 3.875 -3.75 L 2.46875 -2.203125 L 3.953125 0 Z M 2.8125 0 "/></g></g></g><g fill="#ede8f5" fill-opacity="1"><g transform="translate(85.71036, 136.588189)"><g><path d="M 3.3125 -3 L 1.328125 -3 L 1.328125 -2.25 L 3.125 -2.25 L 3.125 -1.5 L 1.328125 -1.5 L 1.328125 -0.75 L 3.375 -0.75 L 3.375 0 L 0.375 0 L 0.375 -3.75 L 3.3125 -3.75 Z M 3.3125 -3 "/></g></g></g><g fill="#ede8f5" fill-opacity="1"><g transform="translate(89.523312, 136.588189)"><g/></g></g><g fill="#ede8f5" fill-opacity="1"><g transform="translate(90.965908, 136.588189)"><g><path d="M 2.140625 -3.78125 C 2.410156 -3.78125 2.679688 -3.722656 2.953125 -3.609375 C 3.222656 -3.492188 3.453125 -3.34375 3.640625 -3.15625 L 3.09375 -2.5 C 2.96875 -2.644531 2.820312 -2.757812 2.65625 -2.84375 C 2.488281 -2.9375 2.320312 -2.984375 2.15625 -2.984375 C 1.851562 -2.984375 1.601562 -2.878906 1.40625 -2.671875 C 1.207031 -2.460938 1.109375 -2.203125 1.109375 -1.890625 C 1.109375 -1.578125 1.207031 -1.316406 1.40625 -1.109375 C 1.601562 -0.898438 1.851562 -0.796875 2.15625 -0.796875 C 2.3125 -0.796875 2.472656 -0.832031 2.640625 -0.90625 C 2.804688 -0.988281 2.957031 -1.097656 3.09375 -1.234375 L 3.65625 -0.640625 C 3.445312 -0.429688 3.203125 -0.265625 2.921875 -0.140625 C 2.648438 -0.015625 2.375 0.046875 2.09375 0.046875 C 1.53125 0.046875 1.0625 -0.132812 0.6875 -0.5 C 0.3125 -0.875 0.125 -1.335938 0.125 -1.890625 C 0.125 -2.429688 0.316406 -2.878906 0.703125 -3.234375 C 1.085938 -3.597656 1.566406 -3.78125 2.140625 -3.78125 Z M 2.140625 -3.78125 "/></g></g></g><g fill="#ede8f5" fill-opacity="1"><g transform="translate(94.87539, 136.588189)"><g><path d="M 2.875 -0.6875 L 1.234375 -0.6875 L 0.953125 0 L -0.03125 0 L 1.59375 -3.75 L 2.578125 -3.75 L 4.15625 0 L 3.140625 0 Z M 2.59375 -1.421875 L 2.046875 -2.796875 L 1.5 -1.421875 Z M 2.59375 -1.421875 "/></g></g></g><g fill="#ede8f5" fill-opacity="1"><g transform="translate(99.203171, 136.588189)"><g><path d="M 2.640625 0 L 2.078125 -1.0625 L 1.328125 -1.0625 L 1.328125 0 L 0.375 0 L 0.375 -3.75 L 2.046875 -3.75 C 2.546875 -3.75 2.929688 -3.632812 3.203125 -3.40625 C 3.472656 -3.1875 3.609375 -2.863281 3.609375 -2.4375 C 3.609375 -1.863281 3.382812 -1.460938 2.9375 -1.234375 L 3.71875 0 Z M 1.328125 -1.8125 L 2.046875 -1.8125 C 2.253906 -1.8125 2.414062 -1.859375 2.53125 -1.953125 C 2.644531 -2.054688 2.703125 -2.207031 2.703125 -2.40625 C 2.703125 -2.601562 2.644531 -2.75 2.53125 -2.84375 C 2.414062 -2.945312 2.253906 -3 2.046875 -3 L 1.328125 -3 Z M 1.328125 -1.8125 "/></g></g></g><g fill="#ede8f5" fill-opacity="1"><g transform="translate(103.284263, 136.588189)"><g><path d="M 3.3125 -3 L 1.328125 -3 L 1.328125 -2.25 L 3.125 -2.25 L 3.125 -1.5 L 1.328125 -1.5 L 1.328125 -0.75 L 3.375 -0.75 L 3.375 0 L 0.375 0 L 0.375 -3.75 L 3.3125 -3.75 Z M 3.3125 -3 "/></g></g></g><g fill="#ede8f5" fill-opacity="1"><g transform="translate(107.097215, 136.588189)"><g/></g></g><g fill="#ede8f5" fill-opacity="1"><g transform="translate(108.539811, 136.588189)"><g><path d="M 2.15625 -3.78125 C 2.738281 -3.78125 3.222656 -3.597656 3.609375 -3.234375 C 3.992188 -2.878906 4.1875 -2.425781 4.1875 -1.875 C 4.1875 -1.332031 3.988281 -0.875 3.59375 -0.5 C 3.207031 -0.132812 2.722656 0.046875 2.140625 0.046875 C 1.566406 0.046875 1.085938 -0.132812 0.703125 -0.5 C 0.316406 -0.875 0.125 -1.332031 0.125 -1.875 C 0.125 -2.425781 0.316406 -2.878906 0.703125 -3.234375 C 1.085938 -3.597656 1.570312 -3.78125 2.15625 -3.78125 Z M 2.171875 -2.984375 C 1.867188 -2.984375 1.613281 -2.875 1.40625 -2.65625 C 1.207031 -2.445312 1.109375 -2.1875 1.109375 -1.875 C 1.109375 -1.5625 1.210938 -1.296875 1.421875 -1.078125 C 1.628906 -0.859375 1.875 -0.75 2.15625 -0.75 C 2.445312 -0.75 2.691406 -0.859375 2.890625 -1.078125 C 3.097656 -1.296875 3.203125 -1.5625 3.203125 -1.875 C 3.203125 -2.1875 3.097656 -2.445312 2.890625 -2.65625 C 2.691406 -2.875 2.453125 -2.984375 2.171875 -2.984375 Z M 2.171875 -2.984375 "/></g></g></g><g fill="#ede8f5" fill-opacity="1"><g transform="translate(113.055287, 136.588189)"><g><path d="M 3.15625 -3 L 1.328125 -3 L 1.328125 -2.140625 L 3.015625 -2.140625 L 3.015625 -1.375 L 1.328125 -1.375 L 1.328125 0 L 0.375 0 L 0.375 -3.75 L 3.15625 -3.75 Z M 3.15625 -3 "/></g></g></g><g fill="#ede8f5" fill-opacity="1"><g transform="translate(116.49284, 136.588189)"><g/></g></g><g fill="#ede8f5" fill-opacity="1"><g transform="translate(117.935436, 136.588189)"><g><path d="M 2.3125 -1.21875 L 2.3125 0 L 1.359375 0 L 1.359375 -1.1875 L -0.03125 -3.75 L 0.921875 -3.75 L 1.828125 -2.109375 L 2.71875 -3.75 L 3.671875 -3.75 Z M 2.3125 -1.21875 "/></g></g></g><g fill="#ede8f5" fill-opacity="1"><g transform="translate(121.780567, 136.588189)"><g><path d="M 2.15625 -3.78125 C 2.738281 -3.78125 3.222656 -3.597656 3.609375 -3.234375 C 3.992188 -2.878906 4.1875 -2.425781 4.1875 -1.875 C 4.1875 -1.332031 3.988281 -0.875 3.59375 -0.5 C 3.207031 -0.132812 2.722656 0.046875 2.140625 0.046875 C 1.566406 0.046875 1.085938 -0.132812 0.703125 -0.5 C 0.316406 -0.875 0.125 -1.332031 0.125 -1.875 C 0.125 -2.425781 0.316406 -2.878906 0.703125 -3.234375 C 1.085938 -3.597656 1.570312 -3.78125 2.15625 -3.78125 Z M 2.171875 -2.984375 C 1.867188 -2.984375 1.613281 -2.875 1.40625 -2.65625 C 1.207031 -2.445312 1.109375 -2.1875 1.109375 -1.875 C 1.109375 -1.5625 1.210938 -1.296875 1.421875 -1.078125 C 1.628906 -0.859375 1.875 -0.75 2.15625 -0.75 C 2.445312 -0.75 2.691406 -0.859375 2.890625 -1.078125 C 3.097656 -1.296875 3.203125 -1.5625 3.203125 -1.875 C 3.203125 -2.1875 3.097656 -2.445312 2.890625 -2.65625 C 2.691406 -2.875 2.453125 -2.984375 2.171875 -2.984375 Z M 2.171875 -2.984375 "/></g></g></g><g fill="#ede8f5" fill-opacity="1"><g transform="translate(126.296043, 136.588189)"><g><path d="M 3.75 -3.75 L 3.75 -1.578125 C 3.75 -1.078125 3.59375 -0.679688 3.28125 -0.390625 C 2.976562 -0.0976562 2.566406 0.046875 2.046875 0.046875 C 1.515625 0.046875 1.09375 -0.0976562 0.78125 -0.390625 C 0.46875 -0.679688 0.3125 -1.078125 0.3125 -1.578125 L 0.3125 -3.75 L 1.265625 -3.75 L 1.265625 -1.578125 C 1.265625 -1.328125 1.335938 -1.125 1.484375 -0.96875 C 1.628906 -0.820312 1.816406 -0.75 2.046875 -0.75 C 2.273438 -0.75 2.457031 -0.820312 2.59375 -0.96875 C 2.726562 -1.113281 2.796875 -1.316406 2.796875 -1.578125 L 2.796875 -3.75 Z M 3.75 -3.75 "/></g></g></g><g fill="#ede8f5" fill-opacity="1"><g transform="translate(130.559472, 136.588189)"><g><path d="M 2.640625 0 L 2.078125 -1.0625 L 1.328125 -1.0625 L 1.328125 0 L 0.375 0 L 0.375 -3.75 L 2.046875 -3.75 C 2.546875 -3.75 2.929688 -3.632812 3.203125 -3.40625 C 3.472656 -3.1875 3.609375 -2.863281 3.609375 -2.4375 C 3.609375 -1.863281 3.382812 -1.460938 2.9375 -1.234375 L 3.71875 0 Z M 1.328125 -1.8125 L 2.046875 -1.8125 C 2.253906 -1.8125 2.414062 -1.859375 2.53125 -1.953125 C 2.644531 -2.054688 2.703125 -2.207031 2.703125 -2.40625 C 2.703125 -2.601562 2.644531 -2.75 2.53125 -2.84375 C 2.414062 -2.945312 2.253906 -3 2.046875 -3 L 1.328125 -3 Z M 1.328125 -1.8125 "/></g></g></g><g fill="#ede8f5" fill-opacity="1"><g transform="translate(134.640564, 136.588189)"><g/></g></g><g fill="#ede8f5" fill-opacity="1"><g transform="translate(136.08316, 136.588189)"><g><path d="M 3.25 -2.984375 L 2.109375 -2.984375 L 2.109375 0 L 1.15625 0 L 1.15625 -2.984375 L 0.03125 -2.984375 L 0.03125 -3.75 L 3.25 -3.75 Z M 3.25 -2.984375 "/></g></g></g><g fill="#ede8f5" fill-opacity="1"><g transform="translate(139.558252, 136.588189)"><g><path d="M 2.640625 0 L 2.078125 -1.0625 L 1.328125 -1.0625 L 1.328125 0 L 0.375 0 L 0.375 -3.75 L 2.046875 -3.75 C 2.546875 -3.75 2.929688 -3.632812 3.203125 -3.40625 C 3.472656 -3.1875 3.609375 -2.863281 3.609375 -2.4375 C 3.609375 -1.863281 3.382812 -1.460938 2.9375 -1.234375 L 3.71875 0 Z M 1.328125 -1.8125 L 2.046875 -1.8125 C 2.253906 -1.8125 2.414062 -1.859375 2.53125 -1.953125 C 2.644531 -2.054688 2.703125 -2.207031 2.703125 -2.40625 C 2.703125 -2.601562 2.644531 -2.75 2.53125 -2.84375 C 2.414062 -2.945312 2.253906 -3 2.046875 -3 L 1.328125 -3 Z M 1.328125 -1.8125 "/></g></g></g><g fill="#ede8f5" fill-opacity="1"><g transform="translate(143.639344, 136.588189)"><g><path d="M 2.875 -0.6875 L 1.234375 -0.6875 L 0.953125 0 L -0.03125 0 L 1.59375 -3.75 L 2.578125 -3.75 L 4.15625 0 L 3.140625 0 Z M 2.59375 -1.421875 L 2.046875 -2.796875 L 1.5 -1.421875 Z M 2.59375 -1.421875 "/></g></g></g><g fill="#ede8f5" fill-opacity="1"><g transform="translate(147.967125, 136.588189)"><g><path d="M 3.84375 0 L 3 0 L 1.265625 -2.3125 L 1.265625 0 L 0.375 0 L 0.375 -3.75 L 1.21875 -3.75 L 2.953125 -1.4375 L 2.953125 -3.75 L 3.84375 -3.75 Z M 3.84375 0 "/></g></g></g><g fill="#ede8f5" fill-opacity="1"><g transform="translate(152.38071, 136.588189)"><g><path d="M 1.8125 -3.796875 C 2.375 -3.796875 2.867188 -3.65625 3.296875 -3.375 L 2.9375 -2.625 C 2.738281 -2.738281 2.523438 -2.832031 2.296875 -2.90625 C 2.078125 -2.976562 1.890625 -3.015625 1.734375 -3.015625 C 1.460938 -3.015625 1.328125 -2.925781 1.328125 -2.75 C 1.328125 -2.632812 1.394531 -2.539062 1.53125 -2.46875 C 1.664062 -2.394531 1.828125 -2.332031 2.015625 -2.28125 C 2.210938 -2.226562 2.410156 -2.164062 2.609375 -2.09375 C 2.804688 -2.019531 2.972656 -1.898438 3.109375 -1.734375 C 3.242188 -1.566406 3.3125 -1.359375 3.3125 -1.109375 C 3.3125 -0.753906 3.164062 -0.472656 2.875 -0.265625 C 2.59375 -0.0664062 2.238281 0.03125 1.8125 0.03125 C 1.5 0.03125 1.1875 -0.0195312 0.875 -0.125 C 0.570312 -0.238281 0.3125 -0.382812 0.09375 -0.5625 L 0.453125 -1.296875 C 0.648438 -1.140625 0.875 -1.003906 1.125 -0.890625 C 1.382812 -0.785156 1.613281 -0.734375 1.8125 -0.734375 C 1.96875 -0.734375 2.085938 -0.757812 2.171875 -0.8125 C 2.253906 -0.875 2.296875 -0.957031 2.296875 -1.0625 C 2.296875 -1.164062 2.25 -1.253906 2.15625 -1.328125 C 2.0625 -1.398438 1.9375 -1.453125 1.78125 -1.484375 C 1.632812 -1.515625 1.476562 -1.554688 1.3125 -1.609375 C 1.144531 -1.671875 0.984375 -1.734375 0.828125 -1.796875 C 0.679688 -1.867188 0.5625 -1.976562 0.46875 -2.125 C 0.375 -2.28125 0.328125 -2.457031 0.328125 -2.65625 C 0.328125 -3 0.460938 -3.273438 0.734375 -3.484375 C 1.003906 -3.691406 1.363281 -3.796875 1.8125 -3.796875 Z M 1.8125 -3.796875 "/></g></g></g><g fill="#ede8f5" fill-opacity="1"><g transform="translate(156.032778, 136.588189)"><g><path d="M 2.875 -0.6875 L 1.234375 -0.6875 L 0.953125 0 L -0.03125 0 L 1.59375 -3.75 L 2.578125 -3.75 L 4.15625 0 L 3.140625 0 Z M 2.59375 -1.421875 L 2.046875 -2.796875 L 1.5 -1.421875 Z M 2.59375 -1.421875 "/></g></g></g><g fill="#ede8f5" fill-opacity="1"><g transform="translate(160.360559, 136.588189)"><g><path d="M 2.140625 -3.78125 C 2.410156 -3.78125 2.679688 -3.722656 2.953125 -3.609375 C 3.222656 -3.492188 3.453125 -3.34375 3.640625 -3.15625 L 3.09375 -2.5 C 2.96875 -2.644531 2.820312 -2.757812 2.65625 -2.84375 C 2.488281 -2.9375 2.320312 -2.984375 2.15625 -2.984375 C 1.851562 -2.984375 1.601562 -2.878906 1.40625 -2.671875 C 1.207031 -2.460938 1.109375 -2.203125 1.109375 -1.890625 C 1.109375 -1.578125 1.207031 -1.316406 1.40625 -1.109375 C 1.601562 -0.898438 1.851562 -0.796875 2.15625 -0.796875 C 2.3125 -0.796875 2.472656 -0.832031 2.640625 -0.90625 C 2.804688 -0.988281 2.957031 -1.097656 3.09375 -1.234375 L 3.65625 -0.640625 C 3.445312 -0.429688 3.203125 -0.265625 2.921875 -0.140625 C 2.648438 -0.015625 2.375 0.046875 2.09375 0.046875 C 1.53125 0.046875 1.0625 -0.132812 0.6875 -0.5 C 0.3125 -0.875 0.125 -1.335938 0.125 -1.890625 C 0.125 -2.429688 0.316406 -2.878906 0.703125 -3.234375 C 1.085938 -3.597656 1.566406 -3.78125 2.140625 -3.78125 Z M 2.140625 -3.78125 "/></g></g></g><g fill="#ede8f5" fill-opacity="1"><g transform="translate(164.270042, 136.588189)"><g><path d="M 3.25 -2.984375 L 2.109375 -2.984375 L 2.109375 0 L 1.15625 0 L 1.15625 -2.984375 L 0.03125 -2.984375 L 0.03125 -3.75 L 3.25 -3.75 Z M 3.25 -2.984375 "/></g></g></g><g fill="#ede8f5" fill-opacity="1"><g transform="translate(167.745134, 136.588189)"><g><path d="M 1.328125 0 L 0.375 0 L 0.375 -3.75 L 1.328125 -3.75 Z M 1.328125 0 "/></g></g></g><g fill="#ede8f5" fill-opacity="1"><g transform="translate(169.648926, 136.588189)"><g><path d="M 2.15625 -3.78125 C 2.738281 -3.78125 3.222656 -3.597656 3.609375 -3.234375 C 3.992188 -2.878906 4.1875 -2.425781 4.1875 -1.875 C 4.1875 -1.332031 3.988281 -0.875 3.59375 -0.5 C 3.207031 -0.132812 2.722656 0.046875 2.140625 0.046875 C 1.566406 0.046875 1.085938 -0.132812 0.703125 -0.5 C 0.316406 -0.875 0.125 -1.332031 0.125 -1.875 C 0.125 -2.425781 0.316406 -2.878906 0.703125 -3.234375 C 1.085938 -3.597656 1.570312 -3.78125 2.15625 -3.78125 Z M 2.171875 -2.984375 C 1.867188 -2.984375 1.613281 -2.875 1.40625 -2.65625 C 1.207031 -2.445312 1.109375 -2.1875 1.109375 -1.875 C 1.109375 -1.5625 1.210938 -1.296875 1.421875 -1.078125 C 1.628906 -0.859375 1.875 -0.75 2.15625 -0.75 C 2.445312 -0.75 2.691406 -0.859375 2.890625 -1.078125 C 3.097656 -1.296875 3.203125 -1.5625 3.203125 -1.875 C 3.203125 -2.1875 3.097656 -2.445312 2.890625 -2.65625 C 2.691406 -2.875 2.453125 -2.984375 2.171875 -2.984375 Z M 2.171875 -2.984375 "/></g></g></g><g fill="#ede8f5" fill-opacity="1"><g transform="translate(174.164403, 136.588189)"><g><path d="M 3.84375 0 L 3 0 L 1.265625 -2.3125 L 1.265625 0 L 0.375 0 L 0.375 -3.75 L 1.21875 -3.75 L 2.953125 -1.4375 L 2.953125 -3.75 L 3.84375 -3.75 Z M 3.84375 0 "/></g></g></g><g fill="#ede8f5" fill-opacity="1"><g transform="translate(178.577988, 136.588189)"><g><path d="M 1.8125 -3.796875 C 2.375 -3.796875 2.867188 -3.65625 3.296875 -3.375 L 2.9375 -2.625 C 2.738281 -2.738281 2.523438 -2.832031 2.296875 -2.90625 C 2.078125 -2.976562 1.890625 -3.015625 1.734375 -3.015625 C 1.460938 -3.015625 1.328125 -2.925781 1.328125 -2.75 C 1.328125 -2.632812 1.394531 -2.539062 1.53125 -2.46875 C 1.664062 -2.394531 1.828125 -2.332031 2.015625 -2.28125 C 2.210938 -2.226562 2.410156 -2.164062 2.609375 -2.09375 C 2.804688 -2.019531 2.972656 -1.898438 3.109375 -1.734375 C 3.242188 -1.566406 3.3125 -1.359375 3.3125 -1.109375 C 3.3125 -0.753906 3.164062 -0.472656 2.875 -0.265625 C 2.59375 -0.0664062 2.238281 0.03125 1.8125 0.03125 C 1.5 0.03125 1.1875 -0.0195312 0.875 -0.125 C 0.570312 -0.238281 0.3125 -0.382812 0.09375 -0.5625 L 0.453125 -1.296875 C 0.648438 -1.140625 0.875 -1.003906 1.125 -0.890625 C 1.382812 -0.785156 1.613281 -0.734375 1.8125 -0.734375 C 1.96875 -0.734375 2.085938 -0.757812 2.171875 -0.8125 C 2.253906 -0.875 2.296875 -0.957031 2.296875 -1.0625 C 2.296875 -1.164062 2.25 -1.253906 2.15625 -1.328125 C 2.0625 -1.398438 1.9375 -1.453125 1.78125 -1.484375 C 1.632812 -1.515625 1.476562 -1.554688 1.3125 -1.609375 C 1.144531 -1.671875 0.984375 -1.734375 0.828125 -1.796875 C 0.679688 -1.867188 0.5625 -1.976562 0.46875 -2.125 C 0.375 -2.28125 0.328125 -2.457031 0.328125 -2.65625 C 0.328125 -3 0.460938 -3.273438 0.734375 -3.484375 C 1.003906 -3.691406 1.363281 -3.796875 1.8125 -3.796875 Z M 1.8125 -3.796875 "/></g></g></g></svg>